<svg preserveAspectRatio="none" width="71" height="71" overflow="visible" style="display: block;" viewBox="0 0 71.0001 70.9987" fill="none" xmlns="http://www.w3.org/2000/svg">
<g id="people">
<path id="Vector" d="M36.6648 42.7252V45.5049C36.6648 45.6174 36.867 45.7088 37.1147 45.7088C37.3623 45.7088 37.5645 45.6174 37.5645 45.5049V42.7252H36.663H36.6648Z" fill="#DBDCDC"/>
<path id="Vector_2" d="M37.1144 43.5922C37.1144 43.5922 35.6666 43.6309 35.204 42.3087C34.7414 40.9865 35.9962 39.0842 35.9962 39.0842C35.9762 38.5813 36.3058 37.0165 37.1163 37.0165C37.9267 37.0165 38.2545 38.5813 38.2363 39.0842C38.2363 39.0842 39.4911 40.9848 39.0285 42.3087C38.566 43.6309 37.1181 43.5922 37.1181 43.5922H37.1144Z" fill="#80CCDA"/>
<path id="Vector_3" d="M41.0556 45.207V47.9868C41.0556 48.0993 41.2578 48.1907 41.5055 48.1907C41.7532 48.1907 41.9553 48.0993 41.9553 47.9868V45.207H41.0538H41.0556Z" fill="#DBDCDC"/>
<path id="Vector_4" d="M41.5055 46.0741C41.5055 46.0741 40.0576 46.1128 39.595 44.7906C39.1325 43.4684 40.3873 41.566 40.3873 41.566C40.3672 41.0632 40.6969 39.4984 41.5073 39.4984C42.3178 39.4984 42.6456 41.0632 42.6274 41.566C42.6274 41.566 43.8822 43.4666 43.4196 44.7906C42.957 46.1128 41.5091 46.0741 41.5091 46.0741H41.5055Z" fill="#80CCDA"/>
<path id="Vector_5" d="M71.0001 21.0871L60.1603 15.0459L45.8747 22.6431L57.0387 28.8707L71.0001 21.0871Z" fill="#EEEEEF"/>
<path id="Vector_6" d="M57.0386 28.8706V53.5207L71.0001 45.7389V21.087L57.0386 28.8706Z" fill="#DBDCDC"/>
<path id="Vector_7" d="M45.8747 22.6426V47.2927L57.0387 53.5203V28.8702L45.8747 22.6426Z" fill="#E5E5E6"/>
<path id="Vector_8" d="M54.2813 51.9823V46.5477L48.0328 43.063V48.4976L54.2813 51.9823Z" fill="#DBDCDC"/>
<path id="Vector_9" d="M54.2813 31.9451L48.0328 28.4603V26.9219L54.2813 30.4067V31.9451Z" fill="white"/>
<path id="Vector_10" d="M54.2813 36.5604L48.0328 33.0739V31.5372L54.2813 35.022V36.5604Z" fill="white"/>
<path id="Vector_11" d="M54.2813 41.1952L48.0328 37.7087V36.172L54.2813 39.6568V41.1952Z" fill="white"/>
<path id="Vector_12" d="M54.2813 45.8301L48.0328 42.3453V40.8069L54.2813 44.2916V45.8301Z" fill="white"/>
<path id="Vector_13" d="M60.703 29.9038L68.3394 25.6472V27.1856L60.703 31.4405V29.9038Z" fill="white"/>
<path id="Vector_14" d="M60.703 34.5084L68.3394 30.2518V31.7902L60.703 36.0469V34.5084Z" fill="white"/>
<path id="Vector_15" d="M60.703 39.1148L68.3394 34.8582V36.3966L60.703 40.6533V39.1148Z" fill="white"/>
<path id="Vector_16" d="M60.703 43.7194L68.3394 39.4628V41.0012L60.703 45.2579V43.7194Z" fill="white"/>
<path id="Vector_17" d="M60.703 51.4777V46.0449L68.3394 41.7882V47.2211L60.703 51.4777Z" fill="#D2D2D3"/>
<path id="Vector_18" d="M28.8754 15.7073L28.2507 20.4632C28.2197 20.6953 28.6532 20.9397 29.2196 21.0083C29.7841 21.0768 30.2686 20.945 30.2977 20.7129L30.9224 15.9569L28.8754 15.7073Z" fill="#E5E5E6"/>
<path id="Vector_19" d="M29.3289 20.0438C28.5458 19.9488 27.8774 20.1299 27.8355 20.4517L26.1053 32.7064C26.0634 33.0281 26.6626 33.3657 27.4457 33.4607C28.2289 33.5556 28.8973 33.3745 28.9391 33.0527L30.6693 20.798C30.7112 20.4763 30.112 20.1387 29.3289 20.0438Z" fill="#D2D2D3"/>
<path id="Vector_20" d="M33.1534 0.203167C32.9312 0.175036 32.0552 0.064269 31.833 0.0361376C28.3162 -0.408689 24.9106 3.30465 24.2276 8.32961C23.5447 13.3563 25.8412 17.7923 29.358 18.2371C29.5802 18.2652 30.4562 18.376 30.6783 18.4041C34.1951 18.849 37.6008 15.1356 38.2837 10.1107C38.9667 5.08396 36.6701 0.647994 33.1534 0.203167Z" fill="#D2D2D3"/>
<path id="Vector_21" d="M29.9317 16.8766C29.8024 16.8766 29.6731 16.8678 29.5456 16.852C26.8703 16.5127 25.0928 12.6921 25.661 8.5093C25.9378 6.47505 26.7191 4.61311 27.8628 3.26632C28.8882 2.05843 30.0938 1.39383 31.2576 1.39383C31.3869 1.39383 31.5162 1.40262 31.6437 1.41845C34.319 1.75778 36.0965 5.57837 35.5283 9.76115C35.2515 11.7954 34.4702 13.6573 33.3265 15.0059C32.3011 16.2138 31.0955 16.8784 29.9317 16.8784V16.8766Z" fill="white"/>
<path id="Vector_22" d="M4.98835 15.8104C4.29447 16.3853 -0.101941 23.7926 0.00186823 25.8234C0.105677 27.8523 4.4948 32.6593 4.4948 32.6593L6.85327 31.374L4.21798 26.2453L6.85327 22.6357C6.85327 22.6357 5.61849 16.7739 4.98835 15.8104Z" fill="#517DB0"/>
<path id="Vector_23" d="M24.1803 24.9459C24.1803 24.9459 26.5224 24.589 26.7409 24.3217C26.9613 24.0545 27.3164 23.0453 27.6279 22.7147C27.9393 22.3842 28.462 22.1099 28.9082 21.6668C29.3544 21.2238 29.6057 21.9903 29.2578 22.4053C28.9082 22.8202 28.6168 22.9732 28.6168 22.9732C28.6168 22.9732 29.5766 22.5776 29.8024 22.4791C30.0282 22.3807 30.855 22.1327 31.019 22.3578C31.2156 22.6286 31.0062 22.8958 31.0062 22.8958C31.0062 22.8958 31.3304 22.836 31.4269 23.0751C31.5253 23.3143 31.2011 23.5481 31.2011 23.5481C31.2011 23.5481 31.4852 23.6501 31.4834 23.9015C31.4815 24.1529 31.2557 24.3182 31.2557 24.3182C31.2557 24.3182 31.4961 24.4413 31.4506 24.6734C31.4051 24.9072 30.8113 25.461 30.6474 25.5753C30.4835 25.6896 28.8772 26.305 28.4383 26.421C27.9775 26.5423 24.4207 27.1542 24.4207 27.1542L24.1803 24.9476V24.9459Z" fill="#FBDEC1"/>
<path id="Vector_24" d="M10.3044 63.9846L10.4246 65.3455L11.2933 66.1314L10.115 66.7151L7.47967 66.2861L7.54706 65.4L7.54888 63.9846H10.3044Z" fill="white"/>
<path id="Vector_25" d="M7.54722 65.4011C7.54722 65.4011 8.56528 65.9936 10.4921 65.9057C10.4921 65.9057 10.3027 65.7105 10.2535 65.4591C10.2098 65.234 10.2991 65.0389 10.2991 65.0389C10.2991 65.0389 11.7834 65.5962 12.3807 65.751C12.9344 65.8951 13.9014 65.6613 14.4587 65.6965C15.495 65.7633 15.2473 66.8692 15.2473 66.8692C15.2473 66.8692 13.2331 68.165 11.7488 68.0788C11.2024 68.0472 10.3319 67.9188 9.66347 67.8151L9.61248 68.3039C8.90949 68.543 8.08448 68.5448 8.08448 68.5448C7.45616 68.2722 7.26675 68.0736 7.26675 68.0736C7.26311 67.9874 7.17751 67.5144 7.17751 67.5144C6.71128 66.3452 7.54722 65.4011 7.54722 65.4011Z" fill="#416792"/>
<path id="Vector_26" d="M15.9211 66.0878L16.0504 67.5542L16.9847 68.3999L15.7171 69.0293L12.8797 68.5669L12.9525 67.6122L12.9543 66.0878H15.9211Z" fill="white"/>
<path id="Vector_27" d="M12.9524 67.6124C12.9524 67.6124 14.0488 68.2506 16.125 68.1557C16.125 68.1557 15.921 67.9447 15.8682 67.6739C15.8227 67.4313 15.9174 67.2221 15.9174 67.2221C15.9174 67.2221 17.5164 67.8216 18.1593 67.9887C18.7548 68.1434 19.7965 67.892 20.3975 67.9306C21.5139 68.0027 21.2462 69.1948 21.2462 69.1948C21.2462 69.1948 19.0772 70.5908 17.4781 70.4976C16.8899 70.4625 15.952 70.3253 15.2326 70.2128L15.1779 70.7385C14.4221 70.9952 13.5316 70.9987 13.5316 70.9987C12.8559 70.7069 12.6519 70.4906 12.6519 70.4906C12.6483 70.3974 12.5554 69.8893 12.5554 69.8893C12.0527 68.6304 12.9542 67.6142 12.9542 67.6142L12.9524 67.6124Z" fill="#416792"/>
<path id="Vector_28" d="M18.0064 34.7656C18.0064 34.7656 17.1942 48.6203 17.1286 53.4448C17.0594 58.5489 16.7152 67.3417 16.7152 67.3417C16.7152 67.3417 14.9796 68.5636 12.734 67.565L12.0474 41.3694L11.2898 41.0441L10.8618 65.0243C10.8618 65.0243 9.4704 65.9245 7.01905 65.1615C7.01905 65.1615 5.88808 40.7013 6.14123 34.9133L7.96062 34.3577L16.0705 33.9533L18.0064 34.7656Z" fill="#4A72A2"/>
<path id="Vector_29" d="M10.3063 9.90622C10.3063 9.90622 10.2025 12.3783 9.63242 13.6512L12.6028 14.7343L14.2474 13.6477C14.2474 13.6477 14.2437 11.5044 14.2346 9.9449L12.4152 8.79855L10.3063 9.90447V9.90622Z" fill="#FBDEC1"/>
<path id="Vector_30" d="M13.1256 10.8186C13.4935 11.2405 14.6172 11.6889 15.189 11.5553C15.7846 11.4164 16.402 10.1206 16.5732 9.33113C16.6988 8.74741 16.8391 6.94524 16.8299 6.60063C16.8208 6.25603 16.8791 3.01213 13.437 2.83631C9.89659 2.65521 9.10254 4.6877 9.12439 6.1013C9.14078 7.18084 9.81827 8.72103 12.4153 9.46124C12.4153 9.46124 12.7686 10.4107 13.1256 10.8186Z" fill="#FBDEC1"/>
<path id="Vector_31" d="M26.2092 24.0532L21.658 24.8356C20.9751 22.3442 19.8131 18.2265 19.325 17.2278C18.8206 16.1993 16.1452 14.8226 15.4185 14.4639C15.1599 13.998 14.8667 13.3316 14.6044 13.2033C12.5501 12.1941 9.53783 12.18 9.53783 12.18L8.96051 13.4952C7.93335 14.0842 5.30716 15.5189 4.98844 15.8107C4.57867 16.1852 4.54953 17.7799 4.56956 19.8528C4.59506 22.5411 5.44739 27.0949 5.48381 28.4171C5.52024 29.7392 4.49489 37.8833 4.49489 37.8833C4.49489 37.8833 8.4961 39.587 10.9183 39.5905C17.4474 39.6046 19.4325 38.0679 19.4325 38.0679L18.8169 29.5669C19.3432 29.945 20.1938 30.2984 21.2628 29.8447C22.7198 29.2258 27.2 26.9982 27.2 26.9982C27.1817 25.0853 26.211 24.0514 26.211 24.0514L26.2092 24.0532Z" fill="#517DB0"/>
<path id="Vector_32" d="M14.3312 6.79121L13.5099 8.31733L13.1001 8.91688C11.8853 10.4184 10.2718 10.4184 10.2718 10.4184C9.7691 8.98721 8.68912 7.91118 8.53432 6.80703C8.25021 4.77278 9.21545 3.59126 10.3574 2.90556C11.7123 2.08975 13.6064 2.10558 14.6846 2.85633C15.7609 3.08138 16.6314 3.81983 16.7881 5.0242C16.7881 5.0242 16.5458 6.05452 14.3312 6.79296V6.79121Z" fill="#416792"/>
<path id="Vector_33" d="M13.304 9.16015C12.4808 8.66434 12.7649 7.75007 13.0946 7.57776C13.559 7.33337 13.854 7.80809 13.854 7.80809L14.0853 8.06303L13.4789 9.27795L13.3022 9.16191L13.304 9.16015Z" fill="#FBDEC1"/>
</g>
</svg>
