<svg preserveAspectRatio="none" width="125.222" height="28" overflow="visible" style="display: block;" viewBox="0 0 125.222 28" fill="none" xmlns="http://www.w3.org/2000/svg">
<g id="logo 1" clip-path="url(#clip0_0_146)">
<path id="Vector" d="M38.7757 13.3707V9.96494H35.3336V11.2263H37.3988V12.74C37.1485 12.9292 36.8982 13.0553 36.5227 13.1815C36.2098 13.3076 35.8343 13.3707 35.4588 13.3707C35.0207 13.3707 34.6452 13.3076 34.3323 13.1184C34.0194 12.9923 33.7065 12.8031 33.4561 12.5508C33.2058 12.2354 33.018 11.9832 32.8929 11.6047C32.7677 11.2263 32.7051 10.8479 32.7051 10.4064C32.7051 10.028 32.7677 9.64959 32.8929 9.33424C33.0806 8.95583 33.2058 8.64049 33.4561 8.38821C33.7065 8.13593 33.9568 7.94673 34.3323 7.75751C34.6452 7.63138 34.9581 7.5683 35.3336 7.5683C35.5839 7.5683 35.8343 7.5683 36.022 7.63138C36.2723 7.63138 36.4601 7.69445 36.5853 7.75751C36.773 7.88366 36.9608 7.94673 37.1485 8.07286C37.2737 8.13593 37.4614 8.26207 37.5866 8.38821L38.4627 7.31604C38.275 7.12682 38.0872 7.00069 37.8369 6.87454C37.6492 6.74841 37.3988 6.62226 37.1485 6.49613C36.8982 6.43306 36.6478 6.37 36.3349 6.30692C36.0846 6.24385 35.7717 6.24385 35.3962 6.24385C34.7704 6.24385 34.2071 6.37 33.7065 6.5592C33.2058 6.81148 32.7677 7.06376 32.3922 7.50523C32.0167 7.88366 31.7664 8.32514 31.5161 8.8297C31.3283 9.33424 31.2031 9.90187 31.2031 10.4695C31.2031 11.0371 31.3283 11.6047 31.5161 12.1093C31.7038 12.6139 32.0167 13.0553 32.3922 13.4338C32.7677 13.8122 33.2058 14.1275 33.7065 14.3167C34.2071 14.5059 34.7704 14.6321 35.3962 14.6321C35.7717 14.6321 36.0846 14.6321 36.4601 14.569C36.773 14.5059 37.0233 14.3798 37.3362 14.2536C37.5866 14.1275 37.8995 14.0014 38.1498 13.8752C38.3376 13.686 38.5879 13.5599 38.7757 13.3707ZM48.7263 10.4064C48.7263 9.8388 48.6011 9.33424 48.4134 8.76662C48.1632 8.26207 47.9127 7.82058 47.5372 7.44217C47.1617 7.06376 46.7238 6.81148 46.223 6.5592C45.7223 6.37 45.0965 6.24385 44.5333 6.24385C43.9074 6.24385 43.2816 6.37 42.7809 6.5592C42.2803 6.81148 41.8422 7.06376 41.4667 7.50523C41.0912 7.88366 40.7783 8.32514 40.5906 8.8297C40.4028 9.33424 40.2776 9.90187 40.2776 10.4695C40.2776 11.0371 40.4028 11.5417 40.5906 12.0462C40.7783 12.6139 41.0912 13.0553 41.4667 13.4338C41.8422 13.8122 42.2803 14.0644 42.7809 14.3167C43.2816 14.5059 43.845 14.6321 44.4707 14.6321C45.0965 14.6321 45.6599 14.5059 46.1604 14.3167C46.7238 14.0644 47.1617 13.7491 47.5372 13.3707C47.9127 12.9923 48.1632 12.5508 48.4134 12.0462C48.6011 11.5417 48.7263 10.9741 48.7263 10.4064ZM47.2243 10.4695C47.2243 10.8479 47.1617 11.2263 47.0366 11.5417C46.9114 11.9201 46.7238 12.2354 46.4733 12.4877C46.223 12.74 45.9101 12.9292 45.5972 13.1184C45.2844 13.2445 44.9088 13.3076 44.5333 13.3076C44.0952 13.3076 43.7197 13.2445 43.4068 13.1184C43.0313 12.9292 42.7809 12.74 42.5306 12.4877C42.2803 12.2354 42.0925 11.9201 41.9674 11.5417C41.8422 11.1633 41.7796 10.8479 41.7796 10.4064C41.7796 10.028 41.8422 9.64959 41.9674 9.33424C42.0925 8.95583 42.2803 8.64049 42.5306 8.38821C42.7809 8.13593 43.0313 7.94673 43.4068 7.75751C43.7197 7.63138 44.0952 7.5683 44.4707 7.5683C44.9088 7.5683 45.2217 7.63138 45.5972 7.75751C45.9101 7.94673 46.223 8.13593 46.4733 8.38821C46.7238 8.64049 46.9114 8.95583 47.0366 9.33424C47.1617 9.64959 47.2243 10.028 47.2243 10.4695ZM53.4826 11.6047V10.2803H50.0405V11.6047H53.4826ZM57.488 7.69445H60.0539V6.37H53.5453V7.69445H56.1112V14.5059H57.488V7.69445ZM69.191 10.4064C69.191 9.8388 69.1284 9.33424 68.8779 8.76662C68.6903 8.26207 68.44 7.82058 68.0645 7.44217C67.689 7.06376 67.2509 6.81148 66.6875 6.5592C66.187 6.37 65.6236 6.24385 64.9979 6.24385C64.3721 6.24385 63.8087 6.37 63.3082 6.5592C62.8075 6.81148 62.3693 7.06376 61.9938 7.50523C61.6183 7.88366 61.3054 8.32514 61.1178 8.8297C60.8673 9.33424 60.8049 9.90187 60.8049 10.4695C60.8049 11.0371 60.8673 11.5417 61.1178 12.0462C61.3054 12.6139 61.5559 13.0553 61.9314 13.4338C62.3069 13.8122 62.7448 14.0644 63.3082 14.3167C63.8087 14.5059 64.3721 14.6321 64.9979 14.6321C65.6236 14.6321 66.187 14.5059 66.6875 14.3167C67.1883 14.0644 67.6264 13.7491 68.0019 13.3707C68.3774 12.9923 68.6903 12.5508 68.8779 12.0462C69.1284 11.5417 69.191 10.9741 69.191 10.4064ZM67.7514 10.4695C67.7514 10.8479 67.689 11.2263 67.5012 11.5417C67.3761 11.9201 67.1883 12.2354 67.0006 12.4877C66.7502 12.74 66.4373 12.9292 66.1244 13.1184C65.7489 13.2445 65.436 13.3076 64.9979 13.3076C64.6224 13.3076 64.2469 13.2445 63.8714 13.1184C63.5585 12.9292 63.2456 12.74 63.0577 12.4877C62.8075 12.2354 62.6198 11.9201 62.4946 11.5417C62.3069 11.1633 62.2443 10.8479 62.2443 10.4064C62.2443 10.028 62.3069 9.64959 62.4946 9.33424C62.6198 8.95583 62.8075 8.64049 62.9953 8.38821C63.2456 8.13593 63.5585 7.94673 63.8714 7.75751C64.2469 7.63138 64.5597 7.5683 64.9979 7.5683C65.3734 7.5683 65.7489 7.63138 66.1244 7.75751C66.4373 7.94673 66.7502 8.13593 66.938 8.38821C67.1883 8.64049 67.3761 8.95583 67.5012 9.33424C67.689 9.64959 67.7514 10.028 67.7514 10.4695ZM73.9472 11.6047V10.2803H70.5678V11.6047H73.9472ZM82.1456 8.64049V14.5059H83.585V6.37H82.083L79.5797 10.2172L77.139 6.37H75.637V14.5059H77.0764V8.70355L79.5797 12.4877H79.6423L82.1456 8.64049ZM89.8432 6.30692H88.529L84.9618 14.5059H86.4012L87.2148 12.5508H91.0323L91.9085 14.5059H93.4106L89.8432 6.30692ZM90.5318 11.2894H87.778L89.1548 8.00979L90.5318 11.2894ZM101.609 14.5059L99.4184 11.4155C99.7313 11.3525 99.9816 11.2263 100.232 11.1002C100.42 10.9741 100.67 10.7848 100.795 10.5956C100.983 10.3434 101.108 10.1541 101.233 9.8388C101.296 9.58652 101.359 9.27118 101.359 8.95583C101.359 8.57742 101.296 8.19901 101.171 7.88366C101.046 7.5683 100.795 7.25295 100.545 7.06376C100.295 6.81148 99.9816 6.68534 99.6061 6.5592C99.2308 6.43306 98.8553 6.37 98.3545 6.37H94.7873V14.5059H96.1641V11.6678H97.979L99.9192 14.5059H101.609ZM99.9192 9.0189C99.9192 9.46039 99.7939 9.77574 99.4811 10.028C99.1682 10.2803 98.7927 10.4064 98.2293 10.4064H96.1641V7.63138H98.2293C98.7927 7.63138 99.1682 7.75751 99.4811 8.00979C99.7939 8.26207 99.9192 8.57742 99.9192 9.0189ZM106.741 9.8388L110.12 6.37H108.368L104.488 10.4695V6.37H103.111V14.5059H104.488V12.1724L105.739 10.8479L108.556 14.5059H110.245L106.741 9.8388ZM117.442 6.37H111.497V14.5059H117.505V13.2445H112.874V11.0371H116.942V9.77574H112.874V7.63138H117.442V6.37ZM122.637 7.69445H125.14V6.37H118.631V7.69445H121.197V14.5059H122.637V7.69445Z" fill="url(#paint0_linear_0_146)"/>
<path id="Vector_2" fill-rule="evenodd" clip-rule="evenodd" d="M57.8009 18.9838C57.8009 18.8577 57.8635 18.7315 57.9885 18.6055C58.1137 18.4793 58.3016 18.4163 58.5519 18.4163C58.7395 18.4163 58.99 18.4793 59.1776 18.5424C59.3655 18.6684 59.5531 18.7315 59.8034 18.9208L60.1789 18.2901C59.9913 18.1008 59.741 17.9747 59.4905 17.8485C59.1776 17.7856 58.9274 17.7225 58.5519 17.7225C58.364 17.7225 58.1137 17.7856 57.9261 17.8485C57.7382 17.9116 57.613 17.9747 57.488 18.1008C57.3001 18.227 57.2377 18.3532 57.1125 18.5424C57.0498 18.6684 57.0498 18.8577 57.0498 19.0469C57.0498 19.2992 57.0498 19.4254 57.1125 19.6145C57.1751 19.7407 57.3001 19.8668 57.4254 19.993C57.5506 20.0561 57.6756 20.1822 57.8635 20.2452C58.0511 20.3082 58.3016 20.3713 58.5519 20.4344C58.7395 20.4975 58.9274 20.4975 59.0526 20.5606C59.1776 20.6236 59.3029 20.6867 59.3655 20.7498C59.4279 20.8129 59.4905 20.8129 59.4905 20.9391C59.5531 21.0021 59.5531 21.0651 59.5531 21.1281C59.5531 21.3174 59.4905 21.4436 59.3655 21.5697C59.1776 21.6328 58.99 21.6959 58.7395 21.6959C58.4892 21.6959 58.239 21.6328 57.9885 21.5697C57.8009 21.4436 57.5506 21.3174 57.3001 21.1281L56.8622 21.6959C57.1125 21.948 57.4253 22.1373 57.7382 22.2635C58.0511 22.3896 58.364 22.4527 58.7395 22.4527C58.99 22.4527 59.1776 22.3896 59.3655 22.3265C59.6158 22.2635 59.741 22.2004 59.9287 22.0742C60.0539 21.948 60.1789 21.8219 60.2415 21.6328C60.3042 21.4436 60.3668 21.2543 60.3668 21.0651C60.3668 20.876 60.3042 20.6867 60.2415 20.5606C60.1789 20.4344 60.1165 20.3082 59.9913 20.1822C59.866 20.0561 59.6784 19.993 59.5531 19.9299C59.3655 19.8668 59.115 19.7407 58.8648 19.7407C58.6771 19.6776 58.4892 19.6145 58.364 19.5514C58.239 19.4883 58.1137 19.4883 58.0511 19.4254C57.9261 19.3623 57.8635 19.2992 57.8635 19.2362C57.8009 19.1731 57.8009 19.0469 57.8009 18.9838ZM52.9819 19.6776V20.4975H31.2031V19.6776H52.9819ZM125.14 19.6776V20.4975H103.424V19.6776H125.14ZM97.7288 20.5606L99.5437 17.7856H98.6048L97.3533 19.8037L96.1015 17.7856H95.1628L96.9151 20.5606V22.3265H97.7288V20.5606ZM93.6608 21.6959V19.8037H91.7833V20.4975H92.9098V21.3805C92.7846 21.4436 92.5969 21.5697 92.4091 21.6328C92.2214 21.6959 92.0336 21.6959 91.8459 21.6959C91.5957 21.6959 91.3452 21.6959 91.1575 21.5697C90.9697 21.5066 90.8446 21.3805 90.7194 21.2543C90.5942 21.1281 90.4691 20.9391 90.4065 20.7498C90.3439 20.4975 90.2813 20.3082 90.2813 20.0561C90.2813 19.8668 90.3439 19.6145 90.4065 19.4254C90.4691 19.2362 90.5942 19.0469 90.7194 18.9208C90.8446 18.7946 90.9697 18.6684 91.1575 18.6055C91.3452 18.4793 91.533 18.4793 91.7207 18.4793C91.9085 18.4793 92.0336 18.4793 92.1588 18.4793C92.284 18.5424 92.3467 18.5424 92.4717 18.6055C92.5343 18.6055 92.6595 18.6684 92.7222 18.7315C92.8472 18.7946 92.9098 18.8577 93.035 18.9208L93.5356 18.3532C93.4106 18.227 93.2853 18.1639 93.1601 18.1008C93.0351 17.9747 92.9098 17.9116 92.7846 17.8485C92.6595 17.8485 92.4717 17.7856 92.3467 17.7856C92.1588 17.7225 91.9712 17.7225 91.7833 17.7225C91.4078 17.7225 91.0949 17.7856 90.8446 17.9116C90.5318 18.0378 90.2813 18.227 90.0936 18.4163C89.9058 18.6055 89.7181 18.8577 89.5929 19.1731C89.5303 19.4254 89.4677 19.7407 89.4677 20.0561C89.4677 20.4344 89.5303 20.7498 89.5929 21.0021C89.7181 21.3174 89.9058 21.5697 90.0936 21.759C90.2813 21.948 90.5318 22.1373 90.8446 22.2635C91.0949 22.3896 91.4078 22.4527 91.7833 22.4527C91.9712 22.4527 92.1588 22.3896 92.3467 22.3896C92.5343 22.3265 92.7222 22.2635 92.8472 22.2004C93.0351 22.1373 93.1601 22.0742 93.2853 22.0111C93.473 21.885 93.5982 21.8219 93.6608 21.6959ZM87.5903 17.7856H84.2108V22.3265H87.5903V21.6328H85.0244V20.4344H87.2774V19.6776H85.0244V18.5424H87.5903V17.7856ZM80.8313 18.5424H82.2707V17.7856H78.6409V18.5424H80.0803V22.3265H80.8313V18.5424ZM75.637 17.7856H74.9486L72.9459 22.3265H73.7595L74.1976 21.2543H76.388L76.826 22.3265H77.6396L75.637 17.7856ZM76.075 20.5606H74.5105L75.2615 18.7315L76.075 20.5606ZM71.3813 22.3265L70.1923 20.6236C70.3174 20.5606 70.5052 20.4975 70.6304 20.4344C70.7555 20.3713 70.8807 20.2452 70.9433 20.1192C71.0684 20.0561 71.131 19.9299 71.1936 19.7407C71.2562 19.6145 71.2562 19.4254 71.2562 19.2362C71.2562 19.0469 71.1936 18.7946 71.131 18.6684C71.0684 18.4793 70.9433 18.2901 70.8181 18.1639C70.6929 18.0378 70.5052 17.9747 70.2549 17.9116C70.0671 17.8485 69.8168 17.7856 69.5663 17.7856H67.5638V22.3265H68.3774V20.7498H69.3787L70.4426 22.3265H71.3813ZM70.4426 19.2992C70.4426 19.4883 70.38 19.6776 70.1923 19.8668C70.0045 19.993 69.8168 20.0561 69.5039 20.0561H68.3774V18.5424H69.5039C69.8168 18.5424 70.0671 18.6055 70.1923 18.7315C70.38 18.8577 70.4426 19.0469 70.4426 19.2992ZM64.1842 18.5424H65.6236V17.7856H61.9314V18.5424H63.3708V22.3265H64.1842V18.5424Z" fill="#383838"/>
<path id="Vector_3" fill-rule="evenodd" clip-rule="evenodd" d="M24.2565 6.62226C21.3777 20.1192 14.8064 26.1737 4.54284 24.7863C13.6173 27.7505 20.2512 24.2816 24.5068 14.3798L27.1977 16.3349L24.2565 6.62226Z" fill="#085D99"/>
<path id="Vector_4" fill-rule="evenodd" clip-rule="evenodd" d="M4.54284 24.7863C14.8064 26.1737 21.3777 20.1191 24.2565 6.62226L14.3058 13.3076L19.9383 13.3707C18.1234 20.3713 11.7399 25.1646 4.54284 24.7863Z" fill="#018FD8"/>
<path id="Vector_5" fill-rule="evenodd" clip-rule="evenodd" d="M15.1193 20.3713V13.8752H12.616V22.2004C13.0541 21.948 13.4922 21.6959 13.9303 21.3805C14.3683 21.0651 14.7438 20.7498 15.1193 20.3713ZM9.29912 23.6509V17.7225H6.79581V24.1556C7.67197 24.0925 8.48555 23.9033 9.29912 23.6509ZM12.1153 22.5158V15.8304H9.79978V23.5248C10.6134 23.2726 11.3644 22.8941 12.1153 22.5158Z" fill="url(#paint1_linear_0_146)"/>
<path id="Vector_6" fill-rule="evenodd" clip-rule="evenodd" d="M15.1196 20.3713V13.8752H12.6163V22.2004C13.0543 21.9481 13.4924 21.6959 13.9305 21.3805C14.3686 21.0651 14.7441 20.7498 15.1196 20.3713ZM9.29938 23.6509V17.7225H6.79606V24.1556C7.67222 24.0925 8.48581 23.9033 9.29938 23.6509ZM12.1156 22.5158V15.8304H9.80004V23.5248C10.6136 23.2726 11.3646 22.8941 12.1156 22.5158Z" fill="url(#paint2_linear_0_146)"/>
<path id="Vector_7" fill-rule="evenodd" clip-rule="evenodd" d="M5.41898 10.2803C5.85707 9.08198 6.4829 8.07286 7.23389 7.18989C8.04747 6.30693 8.98622 5.61316 9.98754 5.10862C11.0515 4.60406 12.2405 4.35178 13.4296 4.35178C14.3058 4.35178 15.0567 4.47792 15.7452 4.60406C16.4335 4.73019 17.1219 4.9194 17.6853 5.17168C18.2484 5.42396 18.8118 5.73931 19.375 6.05465L19.8131 6.37L23.8184 3.59495C23.1926 3.02733 22.504 2.58583 21.8156 2.14436C21.0646 1.70288 20.3138 1.32445 19.5002 1.00911C18.6866 0.693762 17.8103 0.441484 16.809 0.252277C15.8703 0.126139 14.8064 0 13.6173 0C11.6147 0 9.73721 0.378415 8.04747 1.13525C6.35774 1.89208 4.91832 2.90118 3.66667 4.16258C2.4776 5.42396 1.53886 6.93762 0.850444 8.64049C0.600112 9.14505 0.412364 9.71267 0.287197 10.2803C-0.964459 15.3258 2.03952 21.2543 6.1074 24.0925C4.16733 19.993 3.79183 14.4429 5.41898 10.2803ZM11.865 27.8766C14.4309 28.129 17.0593 27.8136 19.5628 26.9306C19.7505 26.8675 19.9383 26.8044 20.0633 26.7413C21.0022 26.2999 21.8783 25.8583 22.6919 25.3538C23.5055 24.8493 24.1939 24.2816 24.8823 23.714V15.8935C23.255 19.4254 21.1899 22.2004 18.6866 24.0925C17.3098 25.1646 15.8703 25.9214 14.3058 26.363C11.0514 27.3091 7.48422 26.9936 4.41766 25.3538C6.67065 26.7413 9.23655 27.5612 11.865 27.8766Z" fill="#383838"/>
</g>
<defs>
<linearGradient id="paint0_linear_0_146" x1="32.114" y1="11.1626" x2="124.281" y2="9.73152" gradientUnits="userSpaceOnUse">
<stop stop-color="#085D99"/>
<stop offset="1" stop-color="#018FD8"/>
</linearGradient>
<linearGradient id="paint1_linear_0_146" x1="6.31856" y1="23.4327" x2="15.6877" y2="14.6742" gradientUnits="userSpaceOnUse">
<stop stop-color="#085D99"/>
<stop offset="0.690196" stop-color="#0576B8"/>
<stop offset="1" stop-color="#018FD8"/>
</linearGradient>
<linearGradient id="paint2_linear_0_146" x1="6.31881" y1="23.4327" x2="15.6879" y2="14.6742" gradientUnits="userSpaceOnUse">
<stop stop-color="#085D99"/>
<stop offset="0.690196" stop-color="#0576B8"/>
<stop offset="1" stop-color="#018FD8"/>
</linearGradient>
<clipPath id="clip0_0_146">
<rect width="125.222" height="28" fill="white"/>
</clipPath>
</defs>
</svg>
