<svg width="116" height="41" viewBox="0 0 116 41" fill="none" xmlns="http://www.w3.org/2000/svg">
<rect y="5" width="30" height="30" rx="15" fill="white"/>
<path d="M8.16 13H14.52C16.04 13 17.38 13.2933 18.54 13.88C19.7133 14.4533 20.62 15.2667 21.26 16.32C21.9133 17.3733 22.24 18.6 22.24 20C22.24 21.4 21.9133 22.6267 21.26 23.68C20.62 24.7333 19.7133 25.5533 18.54 26.14C17.38 26.7133 16.04 27 14.52 27H8.16V13ZM14.36 24.34C15.76 24.34 16.8733 23.9533 17.7 23.18C18.54 22.3933 18.96 21.3333 18.96 20C18.96 18.6667 18.54 17.6133 17.7 16.84C16.8733 16.0533 15.76 15.66 14.36 15.66H11.4V24.34H14.36Z" fill="#767676"/>
<circle cx="36.5" cy="20" r="2.5" transform="rotate(-90 36.5 20)" fill="#CDDCE9"/>
<circle cx="43.5" cy="20" r="2.5" transform="rotate(-90 43.5 20)" fill="#9DB9D4"/>
<circle cx="50.5" cy="20" r="2.5" transform="rotate(-90 50.5 20)" fill="#6D98BF"/>
<circle cx="57.5" cy="20" r="2.5" transform="rotate(-90 57.5 20)" fill="#3D75AA"/>
<path d="M62 23.8167L65.8167 20L62 16.175L63.175 15L68.175 20L63.175 25L62 23.8167Z" fill="#0C5395"/>
<rect x="72.6989" width="40" height="40" rx="20" fill="white"/>
<path d="M93.7389 31.36C91.5989 31.36 89.6589 30.9 87.9189 29.98C86.1989 29.04 84.8389 27.75 83.8389 26.11C82.8589 24.45 82.3689 22.58 82.3689 20.5C82.3689 18.42 82.8589 16.56 83.8389 14.92C84.8389 13.26 86.1989 11.97 87.9189 11.05C89.6589 10.11 91.6089 9.64 93.7689 9.64C95.5889 9.64 97.2289 9.96 98.6889 10.6C100.169 11.24 101.409 12.16 102.409 13.36L99.2889 16.24C97.8689 14.6 96.1089 13.78 94.0089 13.78C92.7089 13.78 91.5489 14.07 90.5289 14.65C89.5089 15.21 88.7089 16 88.1289 17.02C87.5689 18.04 87.2889 19.2 87.2889 20.5C87.2889 21.8 87.5689 22.96 88.1289 23.98C88.7089 25 89.5089 25.8 90.5289 26.38C91.5489 26.94 92.7089 27.22 94.0089 27.22C96.1089 27.22 97.8689 26.39 99.2889 24.73L102.409 27.61C101.409 28.83 100.169 29.76 98.6889 30.4C97.2089 31.04 95.5589 31.36 93.7389 31.36Z" fill="#FBB800"/>
<path fill-rule="evenodd" clip-rule="evenodd" d="M111.902 20C108.271 34.2667 99.9805 40.6666 87.0324 39.2C98.4804 42.3333 106.849 38.6665 112.218 28.2L115.613 30.2666L111.902 20Z" fill="#085D99"/>
<path fill-rule="evenodd" clip-rule="evenodd" d="M87.0324 39.2C99.9805 40.6666 108.271 34.2667 111.902 20L99.3489 27.0666L106.455 27.1333C104.165 34.5332 96.1119 39.5999 87.0324 39.2Z" fill="#018FD8"/>
</svg>
