<svg width="116" height="41" viewBox="0 0 116 41" fill="none" xmlns="http://www.w3.org/2000/svg">
<rect y="5" width="30" height="30" rx="15" fill="white"/>
<path d="M18.94 19.72C19.74 19.9733 20.3667 20.4 20.82 21C21.2733 21.5867 21.5 22.3133 21.5 23.18C21.5 24.4067 21.02 25.3533 20.06 26.02C19.1133 26.6733 17.7267 27 15.9 27H8.66V13H15.5C17.2067 13 18.5133 13.3267 19.42 13.98C20.34 14.6333 20.8 15.52 20.8 16.64C20.8 17.32 20.6333 17.9267 20.3 18.46C19.98 18.9933 19.5267 19.4133 18.94 19.72ZM11.88 15.44V18.74H15.1C15.9 18.74 16.5067 18.6 16.92 18.32C17.3333 18.04 17.54 17.6267 17.54 17.08C17.54 16.5333 17.3333 16.1267 16.92 15.86C16.5067 15.58 15.9 15.44 15.1 15.44H11.88ZM15.66 24.56C16.5133 24.56 17.1533 24.42 17.58 24.14C18.02 23.86 18.24 23.4267 18.24 22.84C18.24 21.68 17.38 21.1 15.66 21.1H11.88V24.56H15.66Z" fill="#0C956E"/>
<circle cx="36.5" cy="20" r="2.5" transform="rotate(-90 36.5 20)" fill="#CDDCE9"/>
<circle cx="43.5" cy="20" r="2.5" transform="rotate(-90 43.5 20)" fill="#9DB9D4"/>
<circle cx="50.5" cy="20" r="2.5" transform="rotate(-90 50.5 20)" fill="#6D98BF"/>
<circle cx="57.5" cy="20" r="2.5" transform="rotate(-90 57.5 20)" fill="#3D75AA"/>
<path d="M62 23.8167L65.8167 20L62 16.175L63.175 15L68.175 20L63.175 25L62 23.8167Z" fill="#0C5395"/>
<rect x="72.6989" width="40" height="40" rx="20" fill="white"/>
<path d="M97.5189 26.5H87.7689L85.9089 31H80.9289L90.2889 10H95.0889L104.479 31H99.3789L97.5189 26.5ZM95.9889 22.81L92.6589 14.77L89.3289 22.81H95.9889Z" fill="#6D98BF"/>
<path fill-rule="evenodd" clip-rule="evenodd" d="M111.902 20C108.271 34.2667 99.9805 40.6666 87.0324 39.2C98.4804 42.3333 106.849 38.6665 112.218 28.2L115.613 30.2666L111.902 20Z" fill="#085D99"/>
<path fill-rule="evenodd" clip-rule="evenodd" d="M87.0324 39.2C99.9805 40.6666 108.271 34.2667 111.902 20L99.3489 27.0666L106.455 27.1333C104.165 34.5332 96.1119 39.5999 87.0324 39.2Z" fill="#018FD8"/>
</svg>
