<svg width="116" height="41" viewBox="0 0 116 41" fill="none" xmlns="http://www.w3.org/2000/svg">
<rect y="5" width="30" height="30" rx="15" fill="white"/>
<path d="M17.88 24H11.38L10.14 27H6.82L13.06 13H16.26L22.52 27H19.12L17.88 24ZM16.86 21.54L14.64 16.18L12.42 21.54H16.86Z" fill="#6D98BF"/>
<circle cx="36.5" cy="20" r="2.5" transform="rotate(-90 36.5 20)" fill="#CDDCE9"/>
<circle cx="43.5" cy="20" r="2.5" transform="rotate(-90 43.5 20)" fill="#9DB9D4"/>
<circle cx="50.5" cy="20" r="2.5" transform="rotate(-90 50.5 20)" fill="#6D98BF"/>
<circle cx="57.5" cy="20" r="2.5" transform="rotate(-90 57.5 20)" fill="#3D75AA"/>
<path d="M62 23.8167L65.8167 20L62 16.175L63.175 15L68.175 20L63.175 25L62 23.8167Z" fill="#0C5395"/>
<rect x="72.6989" width="40" height="40" rx="20" fill="white"/>
<path d="M92.0889 31.36C90.4289 31.36 88.8189 31.14 87.2589 30.7C85.7189 30.24 84.4789 29.65 83.5389 28.93L85.1889 25.27C86.0889 25.93 87.1589 26.46 88.3989 26.86C89.6389 27.26 90.8789 27.46 92.1189 27.46C93.4989 27.46 94.5189 27.26 95.1789 26.86C95.8389 26.44 96.1689 25.89 96.1689 25.21C96.1689 24.71 95.9689 24.3 95.5689 23.98C95.1889 23.64 94.6889 23.37 94.0689 23.17C93.4689 22.97 92.6489 22.75 91.6089 22.51C90.0089 22.13 88.6989 21.75 87.6789 21.37C86.6589 20.99 85.7789 20.38 85.0389 19.54C84.3189 18.7 83.9589 17.58 83.9589 16.18C83.9589 14.96 84.2889 13.86 84.9489 12.88C85.6089 11.88 86.5989 11.09 87.9189 10.51C89.2589 9.93 90.8889 9.64 92.8089 9.64C94.1489 9.64 95.4589 9.8 96.7389 10.12C98.0189 10.44 99.1389 10.9 100.099 11.5L98.5989 15.19C96.6589 14.09 94.7189 13.54 92.7789 13.54C91.4189 13.54 90.4089 13.76 89.7489 14.2C89.1089 14.64 88.7889 15.22 88.7889 15.94C88.7889 16.66 89.1589 17.2 89.8989 17.56C90.6589 17.9 91.8089 18.24 93.3489 18.58C94.9489 18.96 96.2589 19.34 97.2789 19.72C98.2989 20.1 99.1689 20.7 99.8889 21.52C100.629 22.34 100.999 23.45 100.999 24.85C100.999 26.05 100.659 27.15 99.9789 28.15C99.3189 29.13 98.3189 29.91 96.9789 30.49C95.6389 31.07 94.0089 31.36 92.0889 31.36Z" fill="#0C5395"/>
<path fill-rule="evenodd" clip-rule="evenodd" d="M111.902 20C108.271 34.2667 99.9805 40.6666 87.0324 39.2C98.4804 42.3333 106.849 38.6665 112.218 28.2L115.613 30.2666L111.902 20Z" fill="#085D99"/>
<path fill-rule="evenodd" clip-rule="evenodd" d="M87.0324 39.2C99.9805 40.6666 108.271 34.2667 111.902 20L99.3489 27.0666L106.455 27.1333C104.165 34.5332 96.1119 39.5999 87.0324 39.2Z" fill="#018FD8"/>
</svg>
