<svg width="12" height="16" viewBox="0 0 12 16" fill="none" xmlns="http://www.w3.org/2000/svg">
<path d="M6.5 6.5H5.5V5.5H6.5M6.5 10.5H5.5V7.5H6.5M6 3C5.34339 3 4.69321 3.12933 4.08658 3.3806C3.47995 3.63188 2.92876 4.00017 2.46447 4.46447C1.52678 5.40215 1 6.67392 1 8C1 9.32608 1.52678 10.5979 2.46447 11.5355C2.92876 11.9998 3.47995 12.3681 4.08658 12.6194C4.69321 12.8707 5.34339 13 6 13C7.32608 13 8.59785 12.4732 9.53553 11.5355C10.4732 10.5979 11 9.32608 11 8C11 7.34339 10.8707 6.69321 10.6194 6.08658C10.3681 5.47995 9.99983 4.92876 9.53553 4.46447C9.07124 4.00017 8.52005 3.63188 7.91342 3.3806C7.30679 3.12933 6.65661 3 6 3Z" fill="#D85F08"/>
</svg>
