<svg width="116" height="41" viewBox="0 0 116 41" fill="none" xmlns="http://www.w3.org/2000/svg">
<rect y="5" width="30" height="30" rx="15" fill="white"/>
<path d="M15.86 27.24C14.4333 27.24 13.14 26.9333 11.98 26.32C10.8333 25.6933 9.92667 24.8333 9.26 23.74C8.60667 22.6333 8.28 21.3867 8.28 20C8.28 18.6133 8.60667 17.3733 9.26 16.28C9.92667 15.1733 10.8333 14.3133 11.98 13.7C13.14 13.0733 14.44 12.76 15.88 12.76C17.0933 12.76 18.1867 12.9733 19.16 13.4C20.1467 13.8267 20.9733 14.44 21.64 15.24L19.56 17.16C18.6133 16.0667 17.44 15.52 16.04 15.52C15.1733 15.52 14.4 15.7133 13.72 16.1C13.04 16.4733 12.5067 17 12.12 17.68C11.7467 18.36 11.56 19.1333 11.56 20C11.56 20.8667 11.7467 21.64 12.12 22.32C12.5067 23 13.04 23.5333 13.72 23.92C14.4 24.2933 15.1733 24.48 16.04 24.48C17.44 24.48 18.6133 23.9267 19.56 22.82L21.64 24.74C20.9733 25.5533 20.1467 26.1733 19.16 26.6C18.1733 27.0267 17.0733 27.24 15.86 27.24Z" fill="#FBB800"/>
<circle cx="36.5" cy="20" r="2.5" transform="rotate(-90 36.5 20)" fill="#CDDCE9"/>
<circle cx="43.5" cy="20" r="2.5" transform="rotate(-90 43.5 20)" fill="#9DB9D4"/>
<circle cx="50.5" cy="20" r="2.5" transform="rotate(-90 50.5 20)" fill="#6D98BF"/>
<circle cx="57.5" cy="20" r="2.5" transform="rotate(-90 57.5 20)" fill="#3D75AA"/>
<path d="M62 23.8167L65.8167 20L62 16.175L63.175 15L68.175 20L63.175 25L62 23.8167Z" fill="#0C5395"/>
<rect x="72.6989" width="40" height="40" rx="20" fill="white"/>
<path d="M99.1089 20.08C100.309 20.46 101.249 21.1 101.929 22C102.609 22.88 102.949 23.97 102.949 25.27C102.949 27.11 102.229 28.53 100.789 29.53C99.3689 30.51 97.2889 31 94.5489 31H83.6889V10H93.9489C96.5089 10 98.4689 10.49 99.8289 11.47C101.209 12.45 101.899 13.78 101.899 15.46C101.899 16.48 101.649 17.39 101.149 18.19C100.669 18.99 99.9889 19.62 99.1089 20.08ZM88.5189 13.66V18.61H93.3489C94.5489 18.61 95.4589 18.4 96.0789 17.98C96.6989 17.56 97.0089 16.94 97.0089 16.12C97.0089 15.3 96.6989 14.69 96.0789 14.29C95.4589 13.87 94.5489 13.66 93.3489 13.66H88.5189ZM94.1889 27.34C95.4689 27.34 96.4289 27.13 97.0689 26.71C97.7289 26.29 98.0589 25.64 98.0589 24.76C98.0589 23.02 96.7689 22.15 94.1889 22.15H88.5189V27.34H94.1889Z" fill="#0C956E"/>
<path fill-rule="evenodd" clip-rule="evenodd" d="M111.902 20C108.271 34.2667 99.9805 40.6666 87.0324 39.2C98.4804 42.3333 106.849 38.6665 112.218 28.2L115.613 30.2666L111.902 20Z" fill="#085D99"/>
<path fill-rule="evenodd" clip-rule="evenodd" d="M87.0324 39.2C99.9805 40.6666 108.271 34.2667 111.902 20L99.3489 27.0666L106.455 27.1333C104.165 34.5332 96.1119 39.5999 87.0324 39.2Z" fill="#018FD8"/>
</svg>
