<svg width="114" height="49" viewBox="0 0 114 49" fill="none" xmlns="http://www.w3.org/2000/svg">
<rect y="9.5" width="30" height="30" rx="15" fill="white"/>
<path d="M14.76 31.74C13.6533 31.74 12.58 31.5933 11.54 31.3C10.5133 30.9933 9.68667 30.6 9.06 30.12L10.16 27.68C10.76 28.12 11.4733 28.4733 12.3 28.74C13.1267 29.0067 13.9533 29.14 14.78 29.14C15.7 29.14 16.38 29.0067 16.82 28.74C17.26 28.46 17.48 28.0933 17.48 27.64C17.48 27.3067 17.3467 27.0333 17.08 26.82C16.8267 26.5933 16.4933 26.4133 16.08 26.28C15.68 26.1467 15.1333 26 14.44 25.84C13.3733 25.5867 12.5 25.3333 11.82 25.08C11.14 24.8267 10.5533 24.42 10.06 23.86C9.58 23.3 9.34 22.5533 9.34 21.62C9.34 20.8067 9.56 20.0733 10 19.42C10.44 18.7533 11.1 18.2267 11.98 17.84C12.8733 17.4533 13.96 17.26 15.24 17.26C16.1333 17.26 17.0067 17.3667 17.86 17.58C18.7133 17.7933 19.46 18.1 20.1 18.5L19.1 20.96C17.8067 20.2267 16.5133 19.86 15.22 19.86C14.3133 19.86 13.64 20.0067 13.2 20.3C12.7733 20.5933 12.56 20.98 12.56 21.46C12.56 21.94 12.8067 22.3 13.3 22.54C13.8067 22.7667 14.5733 22.9933 15.6 23.22C16.6667 23.4733 17.54 23.7267 18.22 23.98C18.9 24.2333 19.48 24.6333 19.96 25.18C20.4533 25.7267 20.7 26.4667 20.7 27.4C20.7 28.2 20.4733 28.9333 20.02 29.6C19.58 30.2533 18.9133 30.7733 18.02 31.16C17.1267 31.5467 16.04 31.74 14.76 31.74Z" fill="#0C5395"/>
<circle cx="36.5" cy="24.5" r="2.5" transform="rotate(-90 36.5 24.5)" fill="#CDDCE9"/>
<circle cx="43.5" cy="24.5" r="2.5" transform="rotate(-90 43.5 24.5)" fill="#9DB9D4"/>
<circle cx="50.5" cy="24.5" r="2.5" transform="rotate(-90 50.5 24.5)" fill="#6D98BF"/>
<circle cx="57.5" cy="24.5" r="2.5" transform="rotate(-90 57.5 24.5)" fill="#3D75AA"/>
<path d="M62 28.3167L65.8167 24.5L62 20.675L63.175 19.5L68.175 24.5L63.175 29.5L62 28.3167Z" fill="#0C5395"/>
<rect x="72.6989" width="40" height="40" rx="20" fill="white"/>
<path d="M92.0889 31.36C90.4289 31.36 88.8189 31.14 87.2589 30.7C85.7189 30.24 84.4789 29.65 83.5389 28.93L85.1889 25.27C86.0889 25.93 87.1589 26.46 88.3989 26.86C89.6389 27.26 90.8789 27.46 92.1189 27.46C93.4989 27.46 94.5189 27.26 95.1789 26.86C95.8389 26.44 96.1689 25.89 96.1689 25.21C96.1689 24.71 95.9689 24.3 95.5689 23.98C95.1889 23.64 94.6889 23.37 94.0689 23.17C93.4689 22.97 92.6489 22.75 91.6089 22.51C90.0089 22.13 88.6989 21.75 87.6789 21.37C86.6589 20.99 85.7789 20.38 85.0389 19.54C84.3189 18.7 83.9589 17.58 83.9589 16.18C83.9589 14.96 84.2889 13.86 84.9489 12.88C85.6089 11.88 86.5989 11.09 87.9189 10.51C89.2589 9.93 90.8889 9.64 92.8089 9.64C94.1489 9.64 95.4589 9.8 96.7389 10.12C98.0189 10.44 99.1389 10.9 100.099 11.5L98.5989 15.19C96.6589 14.09 94.7189 13.54 92.7789 13.54C91.4189 13.54 90.4089 13.76 89.7489 14.2C89.1089 14.64 88.7889 15.22 88.7889 15.94C88.7889 16.66 89.1589 17.2 89.8989 17.56C90.6589 17.9 91.8089 18.24 93.3489 18.58C94.9489 18.96 96.2589 19.34 97.2789 19.72C98.2989 20.1 99.1689 20.7 99.8889 21.52C100.629 22.34 100.999 23.45 100.999 24.85C100.999 26.05 100.659 27.15 99.9789 28.15C99.3189 29.13 98.3189 29.91 96.9789 30.49C95.6389 31.07 94.0089 31.36 92.0889 31.36Z" fill="#0C5395"/>
<path fill-rule="evenodd" clip-rule="evenodd" d="M105.975 35.3129L78.9944 35.313L98.5954 38.1328L96.9305 43.3734L105.975 35.3129Z" fill="#085D99"/>
<path fill-rule="evenodd" clip-rule="evenodd" d="M78.9636 35.3132L105.945 35.3133L96.9925 27.3758L98.3716 32.2756L78.9636 35.3132Z" fill="#018FD8"/>
<path d="M76.3729 43.086C76.4249 43.158 76.4789 43.244 76.5349 43.344C76.5949 43.444 76.6529 43.544 76.7089 43.644C76.7649 43.744 76.8109 43.832 76.8469 43.908L76.3669 44.112C76.3069 43.988 76.2329 43.848 76.1449 43.692C76.0609 43.532 75.9789 43.394 75.8989 43.278L76.3729 43.086ZM77.0809 42.816C77.1329 42.888 77.1889 42.976 77.2489 43.08C77.3129 43.18 77.3729 43.28 77.4289 43.38C77.4889 43.476 77.5349 43.56 77.5669 43.632L77.0929 43.836C77.0289 43.708 76.9529 43.566 76.8649 43.41C76.7769 43.254 76.6909 43.12 76.6069 43.008L77.0809 42.816ZM76.9129 44.406C76.8769 44.462 76.8409 44.53 76.8049 44.61C76.7689 44.686 76.7389 44.762 76.7149 44.838C76.6629 45.014 76.5889 45.216 76.4929 45.444C76.3969 45.668 76.2809 45.9 76.1449 46.14C76.0089 46.38 75.8489 46.614 75.6649 46.842C75.3809 47.186 75.0469 47.498 74.6629 47.778C74.2829 48.058 73.8109 48.31 73.2469 48.534L72.5389 47.898C72.9469 47.774 73.2989 47.636 73.5949 47.484C73.8909 47.328 74.1489 47.16 74.3689 46.98C74.5889 46.8 74.7849 46.61 74.9569 46.41C75.0929 46.254 75.2189 46.078 75.3349 45.882C75.4549 45.686 75.5549 45.49 75.6349 45.294C75.7189 45.098 75.7769 44.926 75.8089 44.778H73.7869L74.0629 44.1C74.1149 44.1 74.2009 44.1 74.3209 44.1C74.4409 44.1 74.5749 44.1 74.7229 44.1C74.8709 44.1 75.0169 44.1 75.1609 44.1C75.3089 44.1 75.4389 44.1 75.5509 44.1C75.6629 44.1 75.7369 44.1 75.7729 44.1C75.8689 44.1 75.9629 44.094 76.0549 44.082C76.1509 44.066 76.2309 44.048 76.2949 44.028L76.9129 44.406ZM74.9569 43.458C74.8849 43.562 74.8149 43.674 74.7469 43.794C74.6789 43.914 74.6269 44.006 74.5909 44.07C74.4549 44.31 74.2869 44.56 74.0869 44.82C73.8869 45.076 73.6609 45.326 73.4089 45.57C73.1609 45.81 72.8929 46.03 72.6049 46.23L71.9329 45.726C72.1969 45.566 72.4289 45.4 72.6289 45.228C72.8289 45.056 73.0029 44.886 73.1509 44.718C73.2989 44.546 73.4269 44.382 73.5349 44.226C73.6429 44.066 73.7329 43.922 73.8049 43.794C73.8529 43.722 73.9029 43.626 73.9549 43.506C74.0109 43.382 74.0509 43.27 74.0749 43.17L74.9569 43.458ZM78.8689 47.76C78.9049 47.684 78.9269 47.618 78.9349 47.562C78.9429 47.506 78.9469 47.442 78.9469 47.37C78.9469 47.294 78.9469 47.178 78.9469 47.022C78.9469 46.866 78.9469 46.686 78.9469 46.482C78.9469 46.274 78.9469 46.056 78.9469 45.828C78.9469 45.6 78.9469 45.376 78.9469 45.156C78.9469 44.936 78.9469 44.736 78.9469 44.556C78.9469 44.376 78.9469 44.23 78.9469 44.118C78.9469 44.042 78.9429 43.962 78.9349 43.878C78.9309 43.794 78.9229 43.714 78.9109 43.638C78.9029 43.558 78.8929 43.49 78.8809 43.434H79.8229C79.8069 43.55 79.7929 43.664 79.7809 43.776C79.7689 43.888 79.7629 44.002 79.7629 44.118C79.7629 44.214 79.7629 44.334 79.7629 44.478C79.7629 44.618 79.7629 44.774 79.7629 44.946C79.7629 45.118 79.7629 45.296 79.7629 45.48C79.7629 45.664 79.7629 45.846 79.7629 46.026C79.7629 46.206 79.7629 46.376 79.7629 46.536C79.7629 46.696 79.7629 46.836 79.7629 46.956C79.7629 47.076 79.7629 47.17 79.7629 47.238C80.0069 47.166 80.2669 47.068 80.5429 46.944C80.8229 46.816 81.1029 46.666 81.3829 46.494C81.6669 46.318 81.9329 46.126 82.1809 45.918C82.4329 45.71 82.6549 45.488 82.8469 45.252L83.2729 45.93C82.8649 46.422 82.3589 46.848 81.7549 47.208C81.1549 47.564 80.5009 47.858 79.7929 48.09C79.7529 48.106 79.7009 48.126 79.6369 48.15C79.5729 48.174 79.5069 48.208 79.4389 48.252L78.8689 47.76ZM84.2509 45.222C84.3229 45.226 84.4149 45.232 84.5269 45.24C84.6389 45.244 84.7549 45.248 84.8749 45.252C84.9989 45.256 85.1129 45.258 85.2169 45.258C85.3169 45.258 85.4409 45.258 85.5889 45.258C85.7369 45.258 85.8969 45.258 86.0689 45.258C86.2449 45.258 86.4249 45.258 86.6089 45.258C86.7969 45.258 86.9829 45.258 87.1669 45.258C87.3509 45.258 87.5249 45.258 87.6889 45.258C87.8529 45.258 87.9989 45.258 88.1269 45.258C88.2589 45.258 88.3629 45.258 88.4389 45.258C88.5789 45.258 88.7109 45.254 88.8349 45.246C88.9589 45.234 89.0609 45.226 89.1409 45.222V46.164C89.0729 46.16 88.9709 46.154 88.8349 46.146C88.6989 46.138 88.5669 46.134 88.4389 46.134C88.3629 46.134 88.2589 46.134 88.1269 46.134C87.9949 46.134 87.8469 46.134 87.6829 46.134C87.5189 46.134 87.3449 46.134 87.1609 46.134C86.9809 46.134 86.7969 46.134 86.6089 46.134C86.4209 46.134 86.2389 46.134 86.0629 46.134C85.8909 46.134 85.7309 46.134 85.5829 46.134C85.4389 46.134 85.3169 46.134 85.2169 46.134C85.0449 46.134 84.8689 46.138 84.6889 46.146C84.5089 46.15 84.3629 46.156 84.2509 46.164V45.222ZM93.7909 43.536C93.8469 43.616 93.9089 43.71 93.9769 43.818C94.0449 43.926 94.1089 44.034 94.1689 44.142C94.2329 44.25 94.2889 44.35 94.3369 44.442L93.8149 44.676C93.7589 44.548 93.7029 44.434 93.6469 44.334C93.5949 44.234 93.5409 44.138 93.4849 44.046C93.4289 43.95 93.3629 43.85 93.2869 43.746L93.7909 43.536ZM94.5769 43.206C94.6369 43.286 94.7009 43.378 94.7689 43.482C94.8409 43.586 94.9089 43.692 94.9729 43.8C95.0409 43.904 95.0969 44.002 95.1409 44.094L94.6369 44.34C94.5729 44.212 94.5109 44.1 94.4509 44.004C94.3949 43.904 94.3369 43.81 94.2769 43.722C94.2209 43.63 94.1549 43.536 94.0789 43.44L94.5769 43.206ZM91.3969 47.514C91.3969 47.434 91.3969 47.308 91.3969 47.136C91.3969 46.96 91.3969 46.758 91.3969 46.53C91.3969 46.298 91.3969 46.058 91.3969 45.81C91.3969 45.558 91.3969 45.316 91.3969 45.084C91.3969 44.848 91.3969 44.64 91.3969 44.46C91.3969 44.28 91.3969 44.148 91.3969 44.064C91.3969 43.956 91.3909 43.834 91.3789 43.698C91.3709 43.562 91.3569 43.442 91.3369 43.338H92.2729C92.2609 43.442 92.2489 43.558 92.2369 43.686C92.2249 43.814 92.2189 43.94 92.2189 44.064C92.2189 44.172 92.2189 44.322 92.2189 44.514C92.2189 44.706 92.2189 44.92 92.2189 45.156C92.2189 45.388 92.2189 45.626 92.2189 45.87C92.2189 46.114 92.2189 46.348 92.2189 46.572C92.2189 46.792 92.2189 46.986 92.2189 47.154C92.2189 47.318 92.2189 47.438 92.2189 47.514C92.2189 47.566 92.2209 47.644 92.2249 47.748C92.2329 47.848 92.2409 47.952 92.2489 48.06C92.2609 48.168 92.2709 48.264 92.2789 48.348H91.3369C91.3569 48.232 91.3709 48.094 91.3789 47.934C91.3909 47.77 91.3969 47.63 91.3969 47.514ZM92.0449 44.892C92.2449 44.944 92.4669 45.012 92.7109 45.096C92.9589 45.176 93.2089 45.264 93.4609 45.36C93.7129 45.452 93.9509 45.544 94.1749 45.636C94.3989 45.724 94.5829 45.804 94.7269 45.876L94.3909 46.71C94.2189 46.618 94.0309 46.528 93.8269 46.44C93.6229 46.352 93.4149 46.266 93.2029 46.182C92.9949 46.094 92.7909 46.014 92.5909 45.942C92.3909 45.87 92.2089 45.808 92.0449 45.756V44.892ZM99.2449 43.89C99.2049 44.194 99.1529 44.518 99.0889 44.862C99.0249 45.206 98.9389 45.554 98.8309 45.906C98.7149 46.31 98.5789 46.658 98.4229 46.95C98.2669 47.242 98.0949 47.468 97.9069 47.628C97.7229 47.784 97.5209 47.862 97.3009 47.862C97.0809 47.862 96.8769 47.788 96.6889 47.64C96.5049 47.488 96.3569 47.28 96.2449 47.016C96.1369 46.752 96.0829 46.452 96.0829 46.116C96.0829 45.768 96.1529 45.44 96.2929 45.132C96.4329 44.824 96.6269 44.552 96.8749 44.316C97.1269 44.076 97.4189 43.888 97.7509 43.752C98.0869 43.616 98.4489 43.548 98.8369 43.548C99.2089 43.548 99.5429 43.608 99.8389 43.728C100.139 43.848 100.395 44.014 100.607 44.226C100.819 44.438 100.981 44.686 101.093 44.97C101.205 45.254 101.261 45.56 101.261 45.888C101.261 46.308 101.175 46.684 101.003 47.016C100.831 47.348 100.575 47.622 100.235 47.838C99.8989 48.054 99.4789 48.202 98.9749 48.282L98.5249 47.568C98.6409 47.556 98.7429 47.542 98.8309 47.526C98.9189 47.51 99.0029 47.492 99.0829 47.472C99.2749 47.424 99.4529 47.356 99.6169 47.268C99.7849 47.176 99.9309 47.064 100.055 46.932C100.179 46.796 100.275 46.638 100.343 46.458C100.415 46.278 100.451 46.08 100.451 45.864C100.451 45.628 100.415 45.412 100.343 45.216C100.271 45.02 100.165 44.85 100.025 44.706C99.8849 44.558 99.7149 44.446 99.5149 44.37C99.3149 44.29 99.0849 44.25 98.8249 44.25C98.5049 44.25 98.2229 44.308 97.9789 44.424C97.7349 44.536 97.5289 44.682 97.3609 44.862C97.1929 45.042 97.0649 45.236 96.9769 45.444C96.8929 45.652 96.8509 45.85 96.8509 46.038C96.8509 46.238 96.8749 46.406 96.9229 46.542C96.9709 46.674 97.0289 46.774 97.0969 46.842C97.1689 46.906 97.2449 46.938 97.3249 46.938C97.4089 46.938 97.4909 46.896 97.5709 46.812C97.6549 46.724 97.7369 46.592 97.8169 46.416C97.8969 46.24 97.9769 46.018 98.0569 45.75C98.1489 45.462 98.2269 45.154 98.2909 44.826C98.3549 44.498 98.4009 44.178 98.4289 43.866L99.2449 43.89ZM105.197 44.082H107.447V44.718H105.197V48.54H104.531V44.484L104.921 44.082H105.197ZM104.897 45.252H107.273V45.876H104.897V45.252ZM104.885 46.422H107.291V47.046H104.885V46.422ZM104.765 47.628H107.537V48.258H104.765V47.628ZM105.863 44.442H106.505V47.838H105.863V44.442ZM104.927 42.894L105.617 43.08C105.513 43.356 105.391 43.64 105.251 43.932C105.111 44.224 104.957 44.504 104.789 44.772C104.621 45.036 104.441 45.272 104.249 45.48C104.213 45.432 104.167 45.378 104.111 45.318C104.059 45.254 104.005 45.192 103.949 45.132C103.893 45.072 103.841 45.022 103.793 44.982C103.957 44.806 104.113 44.598 104.261 44.358C104.409 44.118 104.541 43.87 104.657 43.614C104.773 43.358 104.863 43.118 104.927 42.894ZM106.283 42.984L107.027 43.146C106.923 43.378 106.813 43.608 106.697 43.836C106.585 44.064 106.479 44.258 106.379 44.418L105.791 44.25C105.851 44.134 105.911 44.002 105.971 43.854C106.035 43.706 106.093 43.556 106.145 43.404C106.201 43.252 106.247 43.112 106.283 42.984ZM102.773 42.906L103.397 43.128C103.317 43.284 103.233 43.444 103.145 43.608C103.057 43.768 102.971 43.924 102.887 44.076C102.803 44.224 102.723 44.354 102.647 44.466L102.167 44.268C102.239 44.144 102.313 44.004 102.389 43.848C102.465 43.692 102.537 43.53 102.605 43.362C102.677 43.194 102.733 43.042 102.773 42.906ZM103.451 43.62L104.039 43.884C103.891 44.108 103.731 44.344 103.559 44.592C103.387 44.84 103.215 45.078 103.043 45.306C102.871 45.534 102.707 45.734 102.551 45.906L102.137 45.678C102.249 45.542 102.365 45.39 102.485 45.222C102.609 45.05 102.729 44.872 102.845 44.688C102.965 44.5 103.077 44.314 103.181 44.13C103.285 43.946 103.375 43.776 103.451 43.62ZM101.849 44.31L102.203 43.824C102.303 43.92 102.407 44.024 102.515 44.136C102.623 44.248 102.723 44.36 102.815 44.472C102.907 44.584 102.975 44.688 103.019 44.784L102.635 45.33C102.591 45.234 102.525 45.126 102.437 45.006C102.353 44.886 102.259 44.766 102.155 44.646C102.051 44.522 101.949 44.41 101.849 44.31ZM103.247 45.054L103.751 44.85C103.831 44.982 103.907 45.126 103.979 45.282C104.051 45.438 104.115 45.59 104.171 45.738C104.227 45.882 104.267 46.012 104.291 46.128L103.745 46.368C103.729 46.252 103.695 46.118 103.643 45.966C103.591 45.814 103.531 45.66 103.463 45.504C103.395 45.344 103.323 45.194 103.247 45.054ZM101.831 45.534C102.099 45.522 102.415 45.506 102.779 45.486C103.143 45.462 103.513 45.438 103.889 45.414L103.901 46.002C103.549 46.03 103.197 46.058 102.845 46.086C102.497 46.11 102.183 46.134 101.903 46.158L101.831 45.534ZM103.433 46.56L103.943 46.41C104.023 46.582 104.093 46.774 104.153 46.986C104.213 47.198 104.251 47.382 104.267 47.538L103.727 47.718C103.711 47.558 103.675 47.372 103.619 47.16C103.567 46.944 103.505 46.744 103.433 46.56ZM102.089 46.428L102.665 46.53C102.633 46.818 102.585 47.102 102.521 47.382C102.461 47.658 102.389 47.892 102.305 48.084C102.265 48.056 102.213 48.026 102.149 47.994C102.085 47.962 102.019 47.932 101.951 47.904C101.883 47.872 101.825 47.848 101.777 47.832C101.865 47.652 101.933 47.436 101.981 47.184C102.029 46.932 102.065 46.68 102.089 46.428ZM102.743 45.858H103.367V48.54H102.743V45.858ZM110.117 43.584H113.255V44.238H110.117V43.584ZM109.919 45.894H113.477V46.542H109.919V45.894ZM109.865 44.76H113.519V45.414H109.865V44.76ZM111.353 42.93H112.037V45.102H111.353V42.93ZM112.127 45.306H112.811V47.784C112.811 47.96 112.791 48.096 112.751 48.192C112.711 48.292 112.633 48.37 112.517 48.426C112.405 48.478 112.267 48.51 112.103 48.522C111.943 48.534 111.755 48.54 111.539 48.54C111.527 48.44 111.501 48.324 111.461 48.192C111.421 48.064 111.379 47.954 111.335 47.862C111.471 47.866 111.607 47.87 111.743 47.874C111.879 47.874 111.967 47.872 112.007 47.868C112.055 47.868 112.087 47.862 112.103 47.85C112.119 47.834 112.127 47.806 112.127 47.766V45.306ZM110.243 46.89L110.813 46.572C110.901 46.672 110.989 46.784 111.077 46.908C111.165 47.028 111.245 47.148 111.317 47.268C111.389 47.384 111.447 47.492 111.491 47.592L110.873 47.946C110.841 47.85 110.791 47.742 110.723 47.622C110.655 47.498 110.579 47.372 110.495 47.244C110.415 47.116 110.331 46.998 110.243 46.89ZM107.825 45.948C108.069 45.892 108.361 45.82 108.701 45.732C109.045 45.644 109.389 45.552 109.733 45.456L109.823 46.104C109.507 46.196 109.187 46.29 108.863 46.386C108.543 46.478 108.249 46.562 107.981 46.638L107.825 45.948ZM107.921 44.04H109.775V44.7H107.921V44.04ZM108.599 42.906H109.259V47.742C109.259 47.906 109.241 48.036 109.205 48.132C109.173 48.232 109.111 48.31 109.019 48.366C108.927 48.418 108.813 48.454 108.677 48.474C108.545 48.494 108.381 48.502 108.185 48.498C108.177 48.41 108.155 48.3 108.119 48.168C108.083 48.04 108.043 47.928 107.999 47.832C108.107 47.836 108.207 47.84 108.299 47.844C108.395 47.844 108.461 47.842 108.497 47.838C108.533 47.838 108.559 47.832 108.575 47.82C108.591 47.804 108.599 47.776 108.599 47.736V42.906Z" fill="#0C5395"/>
</svg>
