<svg preserveAspectRatio="none" width="28" height="28" overflow="visible" style="display: block;" viewBox="0 0 28 28" fill="none" xmlns="http://www.w3.org/2000/svg">
<g id="Group">
<path id="Vector" d="M28 0H0V28H28V0Z" fill="white"/>
<g id="Group_2">
<path id="Vector_2" d="M2.70968 5.87096V9.03226H5.87097H9.03226V5.87096V2.70967H5.87097H2.70968V5.87096ZM8.12903 5.87096V8.12903H5.87097H3.6129V5.87096V3.6129H5.87097H8.12903V5.87096Z" fill="black"/>
<path id="Vector_3" d="M4.51613 5.87097V7.22581H5.87097H7.22581V5.87097V4.51613H5.87097H4.51613V5.87097Z" fill="black"/>
<path id="Vector_4" d="M9.93549 4.51613V6.32259H10.3871H10.8387V6.7742V7.22581H10.3871H9.93549V8.12904V9.03226H10.3871H10.8387V8.58065V8.12904H11.2903H11.7419V9.48388V10.8387H12.1936H12.6452V10.3871V9.93549H13.0968H13.5484V10.3871V10.8387H14H14.4516V11.2903V11.7419H14.9032H15.3548V12.1936V12.6452H15.8065H16.2581V13.0968V13.5484H15.8065H15.3548V14.4516V15.3548H14.9032H14.4516V14.9032V14.4516H14H13.5484V14V13.5484H14H14.4516V13.0968V12.6452H14H13.5484V13.0968V13.5484H13.0968H12.6452V14V14.4516H11.7419H10.8387V14V13.5484H11.2903H11.7419V13.0968V12.6452H12.1936H12.6452V12.1936V11.7419H11.7419H10.8387V11.2903V10.8387H9.93549H9.03226V10.3871V9.93549H7.67742H6.32258V10.8387V11.7419H6.77419H7.22581V12.1936V12.6452H6.77419H6.32258V13.0968V13.5484H5.87097H5.41936V12.1936V10.8387H4.96774H4.51613V10.3871V9.93549H3.6129H2.70968V10.3871V10.8387H3.16129H3.6129V11.7419V12.6452H3.16129H2.70968V14V15.3548H3.16129H3.6129V14.4516V13.5484H4.51613H5.41936V14V14.4516H5.87097H6.32258V14.9032V15.3548H5.41936H4.51613V15.8065V16.2581H5.41936H6.32258V17.1613V18.0645H7.67742H9.03226V17.6129V17.1613H8.12903H7.22581V16.2581V15.3548H7.67742H8.12903V15.8065V16.2581H8.58065H9.03226V15.8065V15.3548H8.58065H8.12903V14.9032V14.4516H9.48387H10.8387V14.9032V15.3548H10.3871H9.93549V17.1613V18.9678H10.3871H10.8387V19.4194V19.871H10.3871H9.93549V20.7742V21.6774H10.3871H10.8387V22.5807V23.4839H10.3871H9.93549V24.3871V25.2903H10.3871H10.8387V24.3871V23.4839H11.2903H11.7419V24.3871V25.2903H13.0968H14.4516V23.9355V22.5807H14.9032H15.3548V22.129V21.6774H14.9032H14.4516V20.7742V19.871H14.9032H15.3548V19.4194V18.9678H15.8065H16.2581V18.5161V18.0645H16.7097H17.1613V18.9678V19.871H16.7097H16.2581V20.3226V20.7742H16.7097H17.1613V21.2258V21.6774H16.7097H16.2581V22.129V22.5807H17.6129H18.9677V23.0323V23.4839H19.4194H19.871V23.9355V24.3871H19.4194H18.9677V24.8387V25.2903H19.4194H19.871V24.8387V24.3871H21.2258H22.5806V24.8387V25.2903H23.9355H25.2903V24.8387V24.3871H24.8387H24.3871V23.4839V22.5807H24.8387H25.2903V22.129V21.6774H24.3871H23.4839V21.2258V20.7742H23.9355H24.3871V20.3226V19.871H23.0323H21.6774V18.9678V18.0645H22.5806H23.4839V17.6129V17.1613H23.9355H24.3871V16.7097V16.2581H23.9355H23.4839V15.8065V15.3548H23.9355H24.3871V14.9032V14.4516H24.8387H25.2903V14V13.5484H24.8387H24.3871V13.0968V12.6452H23.9355H23.4839V12.1936V11.7419H23.9355H24.3871V11.2903V10.8387H24.8387H25.2903V10.3871V9.93549H23.4839H21.6774V10.3871V10.8387H21.2258H20.7742V10.3871V9.93549H20.3226H19.871V10.3871V10.8387H20.3226H20.7742V11.2903V11.7419H19.871H18.9677V13.0968V14.4516H19.871H20.7742V14.9032V15.3548H19.871H18.9677V15.8065V16.2581H19.4194H19.871V16.7097V17.1613H18.5161H17.1613V16.2581V15.3548H17.6129H18.0645V14.9032V14.4516H17.6129H17.1613V13.0968V11.7419H17.6129H18.0645V11.2903V10.8387H17.1613H16.2581V11.2903V11.7419H15.8065H15.3548V11.2903V10.8387H14.9032H14.4516V10.3871V9.93549H14H13.5484V9.48388V9.03226H14H14.4516V8.58065V8.12904H14.9032H15.3548V9.03226V9.93549H16.7097H18.0645V8.12904V6.32259H17.6129H17.1613V5.87097V5.41936H17.6129H18.0645V4.96775V4.51613H17.6129H17.1613V4.96775V5.41936H16.7097H16.2581V4.51613V3.61291H17.1613H18.0645V3.1613V2.70968H16.7097H15.3548V4.06452V5.41936H14.9032H14.4516V4.51613V3.61291H13.5484H12.6452V4.06452V4.51613H13.0968H13.5484V5.87097V7.22581H14H14.4516V7.67743V8.12904H14H13.5484V8.58065V9.03226H13.0968H12.6452V7.22581V5.41936H12.1936H11.7419V4.96775V4.51613H11.2903H10.8387V3.61291V2.70968H10.3871H9.93549V4.51613ZM17.1613 8.12904V9.03226H16.7097H16.2581V8.58065V8.12904H15.8065H15.3548V7.67743V7.22581H16.2581H17.1613V8.12904ZM9.03226 11.2903V11.7419H8.58065H8.12903V11.2903V10.8387H8.58065H9.03226V11.2903ZM23.4839 11.2903V11.7419H23.0323H22.5806V11.2903V10.8387H23.0323H23.4839V11.2903ZM10.8387 13.0968V13.5484H9.48387H8.12903V14V14.4516H7.22581H6.32258V14V13.5484H6.77419H7.22581V13.0968V12.6452H9.03226H10.8387V13.0968ZM22.5806 13.0968V13.5484H22.129H21.6774V14V14.4516H22.5806H23.4839V14.9032V15.3548H22.5806H21.6774V14.9032V14.4516H21.2258H20.7742V13.5484V12.6452H21.6774H22.5806V13.0968ZM13.5484 14.9032V15.3548H13.0968H12.6452V15.8065V16.2581H12.1936H11.7419V16.7097V17.1613H12.6452H13.5484V16.7097V16.2581H14.9032H16.2581V17.1613V18.0645H15.8065H15.3548V18.5161V18.9678H14.9032H14.4516V19.4194V19.871H14H13.5484V20.3226V20.7742H12.6452H11.7419V21.2258V21.6774H12.6452H13.5484V22.129V22.5807H12.6452H11.7419V22.129V21.6774H11.2903H10.8387V21.2258V20.7742H11.2903H11.7419V20.3226V19.871H12.1936H12.6452V19.4194V18.9678H12.1936H11.7419V18.0645V17.1613H11.2903H10.8387V16.7097V16.2581H11.2903H11.7419V15.8065V15.3548H12.1936H12.6452V14.9032V14.4516H13.0968H13.5484V14.9032ZM22.5806 16.7097V17.1613H22.129H21.6774V16.7097V16.2581H22.129H22.5806V16.7097ZM20.7742 19.4194V20.7742H19.4194H18.0645V19.4194V18.0645H19.4194H20.7742V19.4194ZM22.5806 22.129V22.5807H23.0323H23.4839V23.0323V23.4839H23.0323H22.5806V23.0323V22.5807H22.129H21.6774V23.0323V23.4839H20.7742H19.871V23.0323V22.5807H20.3226H20.7742V22.129V21.6774H21.6774H22.5806V22.129ZM13.5484 23.9355V24.3871H13.0968H12.6452V23.9355V23.4839H13.0968H13.5484V23.9355Z" fill="black"/>
<path id="Vector_5" d="M13.5484 17.6129V18.0645H14H14.4516V17.6129V17.1613H14H13.5484V17.6129Z" fill="black"/>
<path id="Vector_6" d="M18.9677 19.4194V19.871H19.4194H19.871V19.4194V18.9677H19.4194H18.9677V19.4194Z" fill="black"/>
<path id="Vector_7" d="M18.9677 5.87096V9.03226H22.129H25.2903V5.87096V2.70967H22.129H18.9677V5.87096ZM24.3871 5.87096V8.12903H22.129H19.871V5.87096V3.6129H22.129H24.3871V5.87096Z" fill="black"/>
<path id="Vector_8" d="M20.7742 5.87097V7.22581H22.129H23.4839V5.87097V4.51613H22.129H20.7742V5.87097Z" fill="black"/>
<path id="Vector_9" d="M2.70968 17.6129V18.0645H4.06452H5.41935V17.6129V17.1613H4.06452H2.70968V17.6129Z" fill="black"/>
<path id="Vector_10" d="M2.70968 22.129V25.2903H5.87097H9.03226V22.129V18.9678H5.87097H2.70968V22.129ZM8.12903 22.129V24.3871H5.87097H3.6129V22.129V19.871H5.87097H8.12903V22.129Z" fill="black"/>
<path id="Vector_11" d="M4.51613 22.129V23.4839H5.87097H7.22581V22.129V20.7742H5.87097H4.51613V22.129Z" fill="black"/>
<path id="Vector_12" d="M16.2581 23.9355V24.3871H15.8065H15.3548V24.8387V25.2903H16.2581H17.1613V24.3871V23.4839H16.7097H16.2581V23.9355Z" fill="black"/>
</g>
</g>
</svg>
