<svg preserveAspectRatio="none" width="19" height="373.524" overflow="visible" style="display: block;" viewBox="0 0 19 373.524" fill="none" xmlns="http://www.w3.org/2000/svg">
<g id="GTM ASSESSMENT REPORT" opacity="0.2">
<path id="Vector" d="M15.2205 363.394L15.2205 357.516L18.6846 357.516L18.6846 373.524L15.2205 373.524L15.2205 367.646L0.314476 367.645L0.314476 363.394L15.2205 363.394Z" fill="#6D98BF"/>
<path id="Vector_2" d="M0.314476 352.252L5.43185 348.709L5.43185 348.5L5.43185 344.799L0.314476 344.799L0.314477 340.548L18.6846 340.548L18.6846 348.5C18.6846 350.127 18.4134 351.535 17.871 352.725C17.3287 353.932 16.5589 354.859 15.5616 355.506C14.5644 356.154 13.3835 356.477 12.0188 356.477C10.6542 356.477 9.47327 356.145 8.47604 355.48C7.4963 354.833 6.744 353.906 6.21914 352.698L0.314476 356.819L0.314476 352.252ZM12.0188 352.174C13.0511 352.174 13.8383 351.841 14.3807 351.176C14.9406 350.511 15.2205 349.541 15.2205 348.263L15.2205 344.799L8.8172 344.799L8.8172 348.263C8.8172 349.541 9.09712 350.511 9.65697 351.176C10.2168 351.841 11.0041 352.174 12.0188 352.174Z" fill="#6D98BF"/>
<path id="Vector_3" d="M8.20438e-05 327.301C8.21271e-05 325.394 0.411223 323.671 1.2335 322.131C2.05578 320.609 3.18423 319.411 4.61884 318.536C6.07095 317.678 7.69802 317.25 9.50003 317.25C11.302 317.25 12.9204 317.678 14.355 318.536C15.8071 319.411 16.9443 320.609 17.7666 322.131C18.5888 323.671 19 325.394 19 327.301C19 329.208 18.5888 330.922 17.7666 332.445C16.9443 333.967 15.8071 335.165 14.355 336.04C12.9204 336.915 11.302 337.352 9.50003 337.352C7.69801 337.352 6.07095 336.915 4.61884 336.04C3.18423 335.165 2.05578 333.967 1.2335 332.445C0.411222 330.922 8.19604e-05 329.208 8.20438e-05 327.301ZM3.62161 327.301C3.62161 328.386 3.86654 329.365 4.35641 330.24C4.86378 331.115 5.56359 331.797 6.45585 332.287C7.34811 332.794 8.36284 333.048 9.50003 333.048C10.6372 333.048 11.652 332.794 12.5442 332.287C13.4365 331.797 14.1275 331.115 14.6174 330.24C15.1248 329.365 15.3785 328.386 15.3785 327.301C15.3785 326.216 15.1248 325.236 14.6174 324.362C14.1275 323.487 13.4365 322.796 12.5442 322.288C11.652 321.799 10.6372 321.554 9.50003 321.554C8.36284 321.554 7.34811 321.799 6.45585 322.288C5.56359 322.796 4.86378 323.487 4.35641 324.362C3.86654 325.236 3.62161 326.216 3.62161 327.301Z" fill="#6D98BF"/>
<path id="Vector_4" d="M18.6846 307.134C18.6846 308.761 18.4134 310.17 17.871 311.36C17.3287 312.567 16.5589 313.494 15.5616 314.141C14.5644 314.789 13.3835 315.112 12.0188 315.112C10.6717 315.112 9.49077 314.789 8.47604 314.141C7.47881 313.494 6.70901 312.567 6.16666 311.36C5.6418 310.17 5.37937 308.761 5.37937 307.134L5.37937 303.434L0.314478 303.434L0.314479 299.183L18.6846 299.183L18.6846 307.134ZM8.84344 306.898C8.84344 308.175 9.11462 309.146 9.65697 309.811C10.2168 310.476 11.0041 310.808 12.0188 310.808C13.0511 310.808 13.8384 310.476 14.3807 309.811C14.9406 309.146 15.2205 308.175 15.2205 306.898L15.2205 303.434L8.84344 303.434L8.84344 306.898Z" fill="#6D98BF"/>
<path id="Vector_5" d="M3.72606 295.801L0.314478 295.801L0.314479 281.577L18.6846 281.577L18.6846 295.46L15.273 295.46L15.273 285.802L11.284 285.802L11.284 294.331L7.97742 294.331L7.97742 285.802L3.72606 285.802L3.72606 295.801Z" fill="#6D98BF"/>
<path id="Vector_6" d="M0.31448 273.984L5.43186 270.441L5.43186 270.231L5.43186 266.531L0.31448 266.531L0.31448 262.28L18.6846 262.28L18.6846 270.231C18.6846 271.858 18.4134 273.267 17.871 274.456C17.3287 275.663 16.5589 276.591 15.5616 277.238C14.5644 277.885 13.3835 278.209 12.0188 278.209C10.6542 278.209 9.47327 277.877 8.47604 277.212C7.4963 276.564 6.74401 275.637 6.21915 274.43L0.31448 278.55L0.31448 273.984ZM12.0188 273.905C13.0511 273.905 13.8384 273.573 14.3807 272.908C14.9406 272.243 15.2205 271.272 15.2205 269.995L15.2205 266.531L8.8172 266.531L8.8172 269.995C8.8172 271.272 9.09712 272.243 9.65697 272.908C10.2168 273.573 11.0041 273.905 12.0188 273.905Z" fill="#6D98BF"/>
<path id="Vector_7" d="M15.2205 242.43L15.2205 236.551L18.6846 236.551L18.6846 252.56L15.2205 252.56L15.2205 246.681L0.31448 246.681L0.31448 242.43L15.2205 242.43Z" fill="#6D98BF"/>
<path id="Vector_8" d="M18.6846 234.278L0.314482 234.278L0.314482 230.788L11.4677 221.629L0.314482 221.629L0.314482 217.43L18.6846 217.43L18.6846 220.947L7.5313 230.079L18.6846 230.079L18.6846 234.278Z" fill="#6D98BF"/>
<path id="Vector_9" d="M3.72607 214.047L0.314482 214.047L0.314482 199.823L18.6846 199.823L18.6846 213.706L15.273 213.706L15.273 204.048L11.284 204.048L11.284 212.577L7.97743 212.577L7.97743 204.048L3.72607 204.048L3.72607 214.047Z" fill="#6D98BF"/>
<path id="Vector_10" d="M0.314484 191.476L11.3365 191.449L2.25646 186.043L2.25646 184.128L11.1003 178.748L0.314484 178.748L0.314484 174.759L18.6846 174.759L18.6846 178.275L7.26887 185.151L18.6846 191.922L18.6846 195.412L0.314483 195.465L0.314484 191.476Z" fill="#6D98BF"/>
<path id="Vector_11" d="M8.78782e-05 164.06C8.79417e-05 162.608 0.192537 161.2 0.577434 159.835C0.979826 158.488 1.49594 157.403 2.12577 156.581L5.32741 158.024C4.75006 158.812 4.28644 159.748 3.93653 160.832C3.58663 161.917 3.41167 163.002 3.41167 164.086C3.41167 165.294 3.58663 166.186 3.93653 166.763C4.30393 167.341 4.78505 167.629 5.37989 167.629C5.81727 167.629 6.17593 167.454 6.45586 167.104C6.75328 166.772 6.98946 166.335 7.16441 165.792C7.33937 165.267 7.53182 164.55 7.74176 163.64C8.07417 162.241 8.40658 161.095 8.73899 160.203C9.0714 159.31 9.60501 158.54 10.3398 157.893C11.0746 157.263 12.0544 156.948 13.279 156.948C14.3462 156.948 15.3085 157.237 16.1657 157.814C17.0405 158.392 17.7316 159.258 18.2389 160.412C18.7463 161.585 19 163.011 19 164.69C19 165.862 18.86 167.008 18.5801 168.128C18.3002 169.248 17.8978 170.227 17.3729 171.067L14.145 169.755C15.1073 168.058 15.5884 166.361 15.5884 164.664C15.5884 163.474 15.396 162.591 15.0111 162.013C14.6262 161.453 14.1188 161.174 13.489 161.174C12.8591 161.174 12.3868 161.497 12.0718 162.145C11.7744 162.809 11.477 163.815 11.1796 165.162C10.8472 166.562 10.5148 167.708 10.1824 168.6C9.84994 169.493 9.32509 170.254 8.60778 170.883C7.89047 171.531 6.91948 171.854 5.69481 171.854C4.64509 171.854 3.68285 171.557 2.80808 170.962C1.95081 170.385 1.2685 169.51 0.761133 168.338C0.25377 167.166 8.78048e-05 165.74 8.78782e-05 164.06Z" fill="#6D98BF"/>
<path id="Vector_12" d="M8.97856e-05 147.324C8.98491e-05 145.872 0.192539 144.464 0.577436 143.099C0.979828 141.752 1.49594 140.667 2.12577 139.845L5.32741 141.288C4.75006 142.075 4.28644 143.011 3.93653 144.096C3.58663 145.181 3.41167 146.266 3.41167 147.35C3.41167 148.557 3.58663 149.45 3.93653 150.027C4.30393 150.604 4.78505 150.893 5.37989 150.893C5.81728 150.893 6.17593 150.718 6.45586 150.368C6.75328 150.036 6.98946 149.598 7.16442 149.056C7.33937 148.531 7.53182 147.814 7.74176 146.904C8.07417 145.505 8.40658 144.359 8.73899 143.466C9.0714 142.574 9.60501 141.804 10.3398 141.157C11.0746 140.527 12.0544 140.212 13.279 140.212C14.3462 140.212 15.3085 140.501 16.1658 141.078C17.0405 141.656 17.7316 142.522 18.2389 143.676C18.7463 144.848 19 146.274 19 147.954C19 149.126 18.86 150.272 18.5801 151.392C18.3002 152.511 17.8978 153.491 17.3729 154.331L14.145 153.019C15.1073 151.322 15.5884 149.625 15.5884 147.928C15.5884 146.738 15.396 145.854 15.0111 145.277C14.6262 144.717 14.1188 144.437 13.489 144.437C12.8591 144.437 12.3868 144.761 12.0718 145.408C11.7744 146.073 11.477 147.079 11.1796 148.426C10.8472 149.826 10.5148 150.972 10.1824 151.864C9.84995 152.756 9.32509 153.517 8.60778 154.147C7.89047 154.795 6.91948 155.118 5.69481 155.118C4.64509 155.118 3.68285 154.821 2.80809 154.226C1.95082 153.649 1.2685 152.774 0.761135 151.602C0.253771 150.429 8.97122e-05 149.004 8.97856e-05 147.324Z" fill="#6D98BF"/>
<path id="Vector_13" d="M3.72607 137.906L0.314486 137.906L0.314486 123.682L18.6846 123.682L18.6846 137.565L15.273 137.565L15.273 127.907L11.284 127.907L11.284 136.436L7.97743 136.436L7.97743 127.907L3.72607 127.907L3.72607 137.906Z" fill="#6D98BF"/>
<path id="Vector_14" d="M8.97856e-05 112.984C8.98491e-05 111.531 0.192539 110.123 0.577436 108.758C0.979828 107.411 1.49594 106.327 2.12577 105.504L5.32741 106.948C4.75006 107.735 4.28644 108.671 3.93653 109.756C3.58663 110.84 3.41167 111.925 3.41167 113.01C3.41167 114.217 3.58663 115.109 3.93653 115.687C4.30393 116.264 4.78505 116.553 5.37989 116.553C5.81728 116.553 6.17593 116.378 6.45586 116.028C6.75328 115.695 6.98946 115.258 7.16442 114.716C7.33937 114.191 7.53182 113.473 7.74176 112.564C8.07417 111.164 8.40658 110.018 8.73899 109.126C9.0714 108.234 9.60501 107.464 10.3398 106.817C11.0746 106.187 12.0544 105.872 13.279 105.872C14.3462 105.872 15.3085 106.16 16.1658 106.738C17.0405 107.315 17.7316 108.181 18.2389 109.336C18.7463 110.508 19 111.934 19 113.613C19 114.786 18.86 115.932 18.5801 117.051C18.3002 118.171 17.8978 119.151 17.3729 119.99L14.145 118.678C15.1073 116.981 15.5884 115.284 15.5884 113.587C15.5884 112.398 15.396 111.514 15.0111 110.937C14.6262 110.377 14.1188 110.097 13.489 110.097C12.8591 110.097 12.3868 110.421 12.0718 111.068C11.7744 111.733 11.477 112.739 11.1796 114.086C10.8472 115.485 10.5148 116.631 10.1824 117.524C9.84995 118.416 9.32509 119.177 8.60778 119.807C7.89047 120.454 6.91948 120.778 5.69481 120.778C4.64509 120.778 3.68285 120.48 2.80809 119.886C1.95082 119.308 1.2685 118.433 0.761135 117.261C0.253771 116.089 8.97122e-05 114.663 8.97856e-05 112.984Z" fill="#6D98BF"/>
<path id="Vector_15" d="M9.16929e-05 96.2488C9.17564e-05 94.7967 0.192541 93.3883 0.577438 92.0237C0.97983 90.6765 1.49594 89.5918 2.12577 88.7696L5.32741 90.2129C4.75007 91.0002 4.28644 91.9362 3.93654 93.0209C3.58663 94.1056 3.41168 95.1903 3.41168 96.275C3.41168 97.4822 3.58663 98.3745 3.93654 98.9518C4.30394 99.5292 4.78506 99.8178 5.3799 99.8178C5.81728 99.8178 6.17593 99.6429 6.45586 99.293C6.75328 98.9606 6.98946 98.5232 7.16442 97.9808C7.33937 97.456 7.53182 96.7387 7.74176 95.8289C8.07417 94.4293 8.40659 93.2833 8.739 92.3911C9.07141 91.4988 9.60501 90.729 10.3398 90.0817C11.0746 89.4519 12.0544 89.137 13.279 89.137C14.3462 89.137 15.3085 89.4256 16.1658 90.003C17.0405 90.5803 17.7316 91.4463 18.2389 92.601C18.7463 93.7732 19 95.1991 19 96.8786C19 98.0508 18.86 99.1968 18.5801 100.316C18.3002 101.436 17.8978 102.416 17.3729 103.256L14.145 101.944C15.1073 100.246 15.5884 98.5494 15.5884 96.8524C15.5884 95.6627 15.396 94.7792 15.0111 94.2018C14.6262 93.642 14.1188 93.3621 13.489 93.3621C12.8591 93.3621 12.3868 93.6857 12.0719 94.3331C11.7744 94.9979 11.477 96.0039 11.1796 97.351C10.8472 98.7506 10.5148 99.8966 10.1824 100.789C9.84995 101.681 9.32509 102.442 8.60778 103.072C7.89047 103.719 6.91948 104.043 5.69481 104.043C4.64509 104.043 3.68285 103.746 2.80809 103.151C1.95082 102.573 1.2685 101.699 0.761137 100.526C0.253773 99.3542 9.16195e-05 97.9283 9.16929e-05 96.2488Z" fill="#6D98BF"/>
<path id="Vector_16" d="M4.25279 82.2176L4.25279 73.6886L0.316344 72.0616L0.316344 67.7052L18.6864 75.893L18.6864 80.0919L0.316343 88.306L0.316343 83.8447L4.25279 82.2176ZM7.48067 80.8792L14.5138 77.9662L7.48067 75.0533L7.48067 80.8792Z" fill="#6D98BF"/>
<path id="Vector_17" d="M0.316345 54.3398L11.3384 54.3135L2.25832 48.9075L2.25832 46.9917L11.1022 41.6119L0.316346 41.6119L0.316346 37.623L18.6864 37.623L18.6864 41.1395L7.27073 48.0152L18.6864 54.7859L18.6864 58.2762L0.316345 58.3287L0.316345 54.3398Z" fill="#6D98BF"/>
<path id="Vector_18" d="M15.2223 25.2066L15.2223 19.3282L18.6864 19.3282L18.6864 35.3364L15.2223 35.3364L15.2223 29.458L0.316345 29.458L0.316346 25.2066L15.2223 25.2066Z" fill="#6D98BF"/>
<path id="Vector_19" d="M9.78872 13.5676L9.78872 17.4516L2.33572 17.4516C1.58342 16.4543 1.00607 15.2996 0.603682 13.9875C0.20129 12.6753 9.53383e-05 11.3545 9.53964e-05 10.0248C9.54797e-05 8.11782 0.402488 6.40328 1.20727 4.88119C2.02955 3.3591 3.158 2.16067 4.59261 1.2859C6.04472 0.428634 7.68053 -3.18126e-07 9.50005 0C11.3196 3.18141e-07 12.9466 0.428636 14.3812 1.28591C15.8333 2.16067 16.9618 3.36785 17.7666 4.90744C18.5889 6.44702 19 8.17906 19 10.1035C19 11.7131 18.7288 13.174 18.1865 14.4861C17.6441 15.7983 16.8568 16.9005 15.8246 17.7927L13.3053 15.0635C14.6874 13.7513 15.3785 12.168 15.3785 10.3135C15.3785 9.1413 15.1335 8.10033 14.6437 7.19057C14.1538 6.28082 13.4627 5.57226 12.5705 5.06489C11.6782 4.55753 10.6547 4.30385 9.50005 4.30385C8.36285 4.30385 7.34812 4.55753 6.45586 5.06489C5.5636 5.57225 4.86379 6.27207 4.35643 7.16433C3.86656 8.07408 3.62162 9.10631 3.62162 10.261C3.62162 11.4857 3.88405 12.5879 4.40891 13.5676L9.78872 13.5676Z" fill="#6D98BF"/>
</g>
</svg>
