<svg preserveAspectRatio="none" width="32" height="32" overflow="visible" style="display: block;" viewBox="0 0 32 32" fill="none" xmlns="http://www.w3.org/2000/svg">
<g id="chart-timeline-variant-shimmer">
<path id="Vector" d="M28 10.6667C26 10.6667 24.9333 12.5333 25.4667 14L20.6667 18.8C20.2667 18.6667 19.7333 18.6667 19.3333 18.8L15.8667 15.3333C16.4 13.8667 15.3333 12 13.3333 12C11.4667 12 10.2667 13.8667 10.8 15.3333L4.66667 21.3333C3.2 20.9333 1.33333 22 1.33333 24C1.33333 25.4667 2.53333 26.6667 4 26.6667C5.86667 26.6667 7.06667 24.8 6.53333 23.3333L12.5333 17.2C12.9333 17.3333 13.4667 17.3333 13.8667 17.2L17.3333 20.6667C16.9333 22 18 24 20 24C22 24 23.0667 22.1333 22.5333 20.6667L27.3333 15.8667C28.8 16.2667 30.6667 15.2 30.6667 13.3333C30.6667 11.8667 29.4667 10.6667 28 10.6667ZM20 12L21.2 9.2L24 8L21.2 6.8L20 4L18.8 6.8L16 8L18.8 9.2L20 12ZM4.66667 14.6667L5.33333 12L8 11.3333L5.33333 10.6667L4.66667 8L4 10.6667L1.33333 11.3333L4 12L4.66667 14.6667Z" fill="white"/>
</g>
</svg>
