<svg width="203" height="155" viewBox="0 0 203 155" fill="none" xmlns="http://www.w3.org/2000/svg">
<g clip-path="url(#clip0_8_248)">
<path opacity="0.06" d="M94.0327 10.2722L10.2771 32.6245L42.0166 150.603L125.772 128.251L94.0327 10.2722Z" fill="#3C4C75"/>
<path d="M95.1157 9.19455L11.3601 31.5469L43.0996 149.526L126.855 127.173L95.1157 9.19455Z" fill="white"/>
<path d="M35.6667 38.4719L77.5456 27.2944" stroke="#547B8C" stroke-width="7.45263" stroke-linecap="round" stroke-linejoin="round"/>
<path d="M61.7881 60.4922L42.3499 62.1871C42.4496 63.2947 42.6447 64.4109 42.9438 65.5228C43.243 66.6347 43.6332 67.697 44.1057 68.7074C45.0834 70.8017 46.4079 72.6629 47.9925 74.2368C49.6075 75.841 51.4891 77.1494 53.5441 78.1059C55.5862 79.0559 57.7994 79.6582 60.0886 79.859C62.2954 80.0512 64.5737 79.8698 66.839 79.2653C69.1043 78.6608 71.168 77.6827 72.9824 76.4175L61.7903 60.4965L61.7881 60.4922Z" fill="#71AFE2"/>
<path d="M83.5482 50.8689C82.4622 48.5414 80.9903 46.4752 79.2301 44.7263C77.4352 42.943 75.3433 41.4899 73.0606 40.4276C70.791 39.3719 68.3328 38.7025 65.79 38.4802C63.3361 38.2664 60.8063 38.4672 58.2896 39.1387L63.8997 59.9931L76.3361 77.6845C78.428 76.225 80.2207 74.4222 81.6558 72.3775C83.0995 70.3199 84.1834 68.0205 84.8402 65.583C85.4862 63.1907 85.7247 60.6689 85.4971 58.1126C85.3865 56.8819 85.1697 55.6426 84.8381 54.4055C84.5064 53.1705 84.0707 51.9895 83.5482 50.8667V50.8689Z" fill="#529AE2"/>
<path d="M56.7394 41.7212C54.4741 42.3257 52.4104 43.3038 50.5959 44.569L61.7881 60.49L56.7394 41.7212Z" fill="#C2E9FF"/>
<path d="M50.5961 44.5691C48.7144 45.8818 47.1016 47.5054 45.8075 49.3449C44.5068 51.1952 43.5335 53.2658 42.9417 55.4594C42.3608 57.612 42.1461 59.8833 42.3521 62.1827L61.7903 60.4879L50.5982 44.5669L50.5961 44.5691Z" fill="#98CFF4"/>
<path d="M40.0088 96.3216L78.5363 86.0401M81.8855 85.1463L102.824 79.5586M40.9041 99.6595L86.9689 87.3658M41.8015 102.997L104.619 86.2323M42.699 106.333L105.516 89.568M43.5964 109.669L81.2872 99.6099" stroke="#B4C8D8" stroke-width="4.47158" stroke-linecap="round" stroke-linejoin="round"/>
<path d="M49.9805 133.113L99.6047 119.869M102.954 118.975L112.796 116.35M50.8758 136.451L107.411 121.363" stroke="#B4C8D8" stroke-width="4.47158" stroke-linecap="round" stroke-linejoin="round"/>
<path d="M70.5352 109.688L83.9362 106.113M87.2854 105.219L108.224 99.6313M71.4304 113.026L102.839 104.645M72.3279 116.364L110.019 106.305M73.2253 119.7L100.446 112.435" stroke="#B4C8D8" stroke-width="4.47158" stroke-linecap="round" stroke-linejoin="round"/>
<path d="M60.3707 121.672L62.9157 117.412L69.0461 120.832L65.6622 108.251L44.7217 113.841L47.9755 125.936L52.7554 116.883L60.3707 121.672Z" fill="#ABE5FF"/>
<path d="M62.9155 117.412L60.3706 121.672L52.7552 116.883L47.9753 125.936L48.7904 128.961L69.7288 123.371L69.0459 120.832L62.9155 117.412Z" fill="#37DB5E"/>
<path d="M61.8771 115.065C62.7319 115.065 63.4249 114.375 63.4249 113.524C63.4249 112.672 62.7319 111.982 61.8771 111.982C61.0223 111.982 60.3293 112.672 60.3293 113.524C60.3293 114.375 61.0223 115.065 61.8771 115.065Z" fill="white"/>
<path opacity="0.06" d="M103.996 14.1185L93.3083 135.794L179.689 143.321L190.377 21.6455L103.996 14.1185Z" fill="#3C4C75"/>
<path d="M105.081 13.0399L94.3933 134.716L180.774 142.243L191.462 20.5669L105.081 13.0399Z" fill="white"/>
<path d="M107.151 113.348L171.936 118.994" stroke="#EEEEEE" stroke-width="2.23579" stroke-linecap="round" stroke-linejoin="round"/>
<path d="M107.68 107.326L172.465 112.972" stroke="#EEEEEE" stroke-width="2.23579" stroke-linecap="round" stroke-linejoin="round"/>
<path d="M108.209 101.305L172.995 106.948" stroke="#EEEEEE" stroke-width="2.23579" stroke-linecap="round" stroke-linejoin="round"/>
<path d="M108.738 95.2808L173.523 100.927" stroke="#EEEEEE" stroke-width="2.23579" stroke-linecap="round" stroke-linejoin="round"/>
<path d="M109.267 89.2588L174.052 94.9048" stroke="#EEEEEE" stroke-width="2.23579" stroke-linecap="round" stroke-linejoin="round"/>
<path d="M115.258 120.123L113.099 119.935L113.93 110.472C113.951 110.235 114.162 110.06 114.4 110.079L115.696 110.191C115.935 110.213 116.11 110.422 116.091 110.66L115.261 120.123H115.258Z" fill="#DDD354"/>
<path d="M124.486 109.224L125.782 109.337C126.019 109.358 126.196 109.568 126.176 109.805L125.193 120.989L123.034 120.801L124.016 109.617C124.037 109.38 124.248 109.203 124.486 109.224Z" fill="#DDD354"/>
<path d="M134.798 105.789L136.094 105.902C136.331 105.923 136.509 106.133 136.488 106.37L135.128 121.856L132.968 121.668L134.328 106.182C134.349 105.945 134.561 105.768 134.798 105.789Z" fill="#DDD354"/>
<path d="M144.712 106.867L146.007 106.98C146.245 107 146.422 107.211 146.402 107.447L145.06 122.718L142.901 122.53L144.242 107.259C144.263 107.023 144.474 106.846 144.712 106.867Z" fill="#DDD354"/>
<path d="M155.61 96.7657L156.905 96.8786C157.143 96.8993 157.32 97.1098 157.299 97.3464L154.994 123.587L152.835 123.399L155.14 97.1582C155.161 96.9216 155.372 96.745 155.61 96.7657Z" fill="#DDD354"/>
<path d="M165.713 95.6963L167.009 95.8092C167.246 95.8299 167.424 96.0404 167.403 96.277L164.928 124.453L162.768 124.265L165.243 96.0889C165.264 95.8523 165.475 95.6756 165.713 95.6963Z" fill="#DDD354"/>
<path d="M106.622 119.371L171.408 125.015" stroke="#CCCCCC" stroke-width="2.23579" stroke-linecap="round" stroke-linejoin="round"/>
<path d="M111.614 121.973L116.366 122.388" stroke="#B4C8D8" stroke-width="2.23579" stroke-linecap="round" stroke-linejoin="round"/>
<path d="M131.482 123.705L136.233 124.119" stroke="#B4C8D8" stroke-width="2.23579" stroke-linecap="round" stroke-linejoin="round"/>
<path d="M140.985 124.532L146.6 125.022" stroke="#B4C8D8" stroke-width="2.23579" stroke-linecap="round" stroke-linejoin="round"/>
<path d="M122.197 122.895L125.653 123.195" stroke="#B4C8D8" stroke-width="2.23579" stroke-linecap="round" stroke-linejoin="round"/>
<path d="M151.998 125.493L155.453 125.793" stroke="#B4C8D8" stroke-width="2.23579" stroke-linecap="round" stroke-linejoin="round"/>
<path d="M160.636 126.244L166.682 126.771" stroke="#B4C8D8" stroke-width="2.23579" stroke-linecap="round" stroke-linejoin="round"/>
<path d="M109.644 84.9561L131.239 86.8388" stroke="#547B8C" stroke-width="2.98105" stroke-linecap="round" stroke-linejoin="round"/>
<path d="M111.118 68.1802L175.904 73.8261" stroke="#EEEEEE" stroke-width="2.23579" stroke-linecap="round" stroke-linejoin="round"/>
<path d="M111.647 62.1587L176.433 67.8025" stroke="#EEEEEE" stroke-width="2.23579" stroke-linecap="round" stroke-linejoin="round"/>
<path d="M112.176 56.1348L176.962 61.7807" stroke="#EEEEEE" stroke-width="2.23579" stroke-linecap="round" stroke-linejoin="round"/>
<path d="M112.705 50.1133L177.49 55.7592" stroke="#EEEEEE" stroke-width="2.23579" stroke-linecap="round" stroke-linejoin="round"/>
<path d="M113.234 44.0918L178.019 49.7356" stroke="#EEEEEE" stroke-width="2.23579" stroke-linecap="round" stroke-linejoin="round"/>
<path d="M118.745 60.6099L120.041 60.7228C120.279 60.7435 120.456 60.954 120.435 61.1906L119.226 74.9561L117.067 74.7679L118.276 61.0024C118.296 60.7658 118.508 60.5892 118.745 60.6099Z" fill="#E07553"/>
<path d="M129.738 49.4312L131.034 49.5441C131.271 49.5648 131.448 49.7753 131.428 50.0119L129.16 75.8221L127.001 75.634L129.268 49.8237C129.289 49.5871 129.5 49.4105 129.738 49.4312Z" fill="#E07553"/>
<path d="M138.954 58.4688L140.25 58.5817C140.488 58.6024 140.665 58.8129 140.644 59.0495L139.095 76.6865L136.935 76.4983L138.485 58.8613C138.505 58.6247 138.717 58.4481 138.954 58.4688Z" fill="#E07553"/>
<path d="M149.416 53.3135L150.711 53.4264C150.949 53.4471 151.126 53.6576 151.105 53.8942L149.027 77.5536L146.868 77.3654L148.946 53.706C148.967 53.4695 149.178 53.2928 149.416 53.3135Z" fill="#E07553"/>
<path d="M158.103 68.3745L159.399 68.4875C159.636 68.5082 159.813 68.7187 159.793 68.9553L158.961 78.419L156.802 78.2308L157.633 68.7671C157.654 68.5305 157.865 68.3538 158.103 68.3745Z" fill="#E07553"/>
<path d="M168.754 61.0655L170.05 61.1784C170.288 61.1991 170.465 61.4096 170.444 61.6462L168.895 79.2832L166.735 79.095L168.285 61.458C168.306 61.2214 168.517 61.0448 168.754 61.0655Z" fill="#E07553"/>
<path d="M110.589 74.2021L175.375 79.8481" stroke="#CCCCCC" stroke-width="2.23579" stroke-linecap="round" stroke-linejoin="round"/>
<path d="M115.583 76.8057L120.333 77.2202" stroke="#B4C8D8" stroke-width="2.23579" stroke-linecap="round" stroke-linejoin="round"/>
<path d="M135.451 78.5376L140.201 78.95" stroke="#B4C8D8" stroke-width="2.23579" stroke-linecap="round" stroke-linejoin="round"/>
<path d="M144.952 79.3643L150.567 79.8544" stroke="#B4C8D8" stroke-width="2.23579" stroke-linecap="round" stroke-linejoin="round"/>
<path d="M126.165 77.728L129.62 78.0281" stroke="#B4C8D8" stroke-width="2.23579" stroke-linecap="round" stroke-linejoin="round"/>
<path d="M155.967 80.3257L159.42 80.6258" stroke="#B4C8D8" stroke-width="2.23579" stroke-linecap="round" stroke-linejoin="round"/>
<path d="M164.603 81.0767L170.651 81.6035" stroke="#B4C8D8" stroke-width="2.23579" stroke-linecap="round" stroke-linejoin="round"/>
<path d="M113.611 39.7886L135.206 41.6713" stroke="#547B8C" stroke-width="2.98105" stroke-linecap="round" stroke-linejoin="round"/>
<path d="M114.671 27.7456L160.885 31.7723M164.34 32.0724L179.456 33.3894M114.369 31.185L168.357 35.8896" stroke="#B4C8D8" stroke-width="4.47158" stroke-linecap="round" stroke-linejoin="round"/>
<path d="M115.668 21.3311L150.22 24.3408" stroke="#547B8C" stroke-width="7.45263" stroke-linecap="round" stroke-linejoin="round"/>
<path opacity="0.06" d="M138.815 7.04253L52.3164 13.0669L60.8708 134.91L147.37 128.886L138.815 7.04253Z" fill="#3C4C75"/>
<path d="M139.899 5.96197L53.4001 11.9863L61.9545 133.829L148.454 127.805L139.899 5.96197Z" fill="white"/>
<path d="M65.1812 25.0189L111.458 21.7954M114.918 21.5536L130.056 20.5M65.4239 28.4648L119.486 24.6994" stroke="#B4C8D8" stroke-width="4.47158" stroke-linecap="round" stroke-linejoin="round"/>
<path d="M65.1594 18.5262L99.759 16.1167" stroke="#547B8C" stroke-width="7.45263" stroke-linecap="round" stroke-linejoin="round"/>
<path d="M68.2964 69.3873L133.171 64.8684M67.8433 62.9252L132.718 58.4063M132.265 51.9442L67.3903 56.4631M66.9372 50.001L131.812 45.4821M66.4841 43.5389L131.359 39.02" stroke="#EEEEEE" stroke-width="2.23579" stroke-linecap="round" stroke-linejoin="round"/>
<path d="M132.197 75.7588L127.006 76.1194" stroke="#B4C8D8" stroke-width="2.23579" stroke-linecap="round" stroke-linejoin="round"/>
<path d="M122.25 76.4524L124.845 76.271" stroke="#ED4C60" stroke-width="2.23579" stroke-linecap="round" stroke-linejoin="round"/>
<path d="M115.761 76.9033L107.977 77.4452" stroke="#B4C8D8" stroke-width="2.23579" stroke-linecap="round" stroke-linejoin="round"/>
<path d="M103.219 77.7754L105.814 77.5962" stroke="#529AE2" stroke-width="2.23579" stroke-linecap="round" stroke-linejoin="round"/>
<path d="M96.7328 78.229L91.541 78.5896" stroke="#B4C8D8" stroke-width="2.23579" stroke-linecap="round" stroke-linejoin="round"/>
<path d="M86.7852 78.9221L89.38 78.7407" stroke="#E07553" stroke-width="2.23579" stroke-linecap="round" stroke-linejoin="round"/>
<path d="M80.2969 79.373L73.8088 79.8243" stroke="#B4C8D8" stroke-width="2.23579" stroke-linecap="round" stroke-linejoin="round"/>
<path d="M69.053 80.157L71.6478 79.9756" stroke="#42D66B" stroke-width="2.23579" stroke-linecap="round" stroke-linejoin="round"/>
<path d="M131.714 44.1309L121.536 53.9093L111.138 60.5484L100.123 58.4239L89.458 61.2695L78.8663 65.1624L68.2378 68.5327" stroke="#529AE2" stroke-width="2.23579" stroke-linecap="round" stroke-linejoin="round"/>
<path d="M131.883 46.5249L121.254 49.8952M100.208 59.6434L89.5424 62.4891M111.012 58.7582L100.208 59.6412M89.5424 62.4869L78.7665 63.7629M121.254 49.8931L111.012 58.756M78.7686 63.7629L68.1401 67.1332" stroke="#E07553" stroke-width="2.23579" stroke-linecap="round" stroke-linejoin="round"/>
<path d="M131.61 42.645L120.879 44.5752M120.877 44.5752L111.398 64.2962L99.9888 56.5473L89.3234 59.3929L78.942 66.2933L68.4978 72.2782" stroke="#42D66B" stroke-width="2.23579" stroke-linecap="round" stroke-linejoin="round"/>
<path d="M131.244 37.4136L121.066 47.192L110.273 48.2068L99.809 53.9305L89.1436 56.7761L78.552 60.6689L68.6865 74.895" stroke="#ED4C60" stroke-width="2.23579" stroke-linecap="round" stroke-linejoin="round"/>
<path d="M66.3301 41.3862L68.7493 75.8471L133.624 71.3304" stroke="#CCCCCC" stroke-width="2.23579" stroke-linecap="round" stroke-linejoin="round"/>
<path d="M66.0288 37.0791L87.6522 35.5742" stroke="#547B8C" stroke-width="2.98105" stroke-linecap="round" stroke-linejoin="round"/>
<path d="M69.6577 88.7716L109.447 85.9993M112.907 85.7575L134.532 84.2505M69.9005 92.2153L117.474 88.9011M70.1411 95.6612L135.016 91.1422M70.3839 99.107L135.258 94.5881M70.6267 102.553L109.551 99.8411" stroke="#B4C8D8" stroke-width="4.47158" stroke-linecap="round" stroke-linejoin="round"/>
<path d="M71.1121 109.501L84.951 108.538M88.4107 108.296L135.984 104.982M71.3527 112.947L125.414 109.181M71.5955 116.393L136.47 111.874M71.8383 119.838L130.225 115.773" stroke="#B4C8D8" stroke-width="4.47158" stroke-linecap="round" stroke-linejoin="round"/>
<path opacity="0.4" d="M126.459 61.6946C135.079 61.6946 142.067 54.7347 142.067 46.1493C142.067 37.5639 135.079 30.604 126.459 30.604C117.839 30.604 110.851 37.5639 110.851 46.1493C110.851 54.7347 117.839 61.6946 126.459 61.6946Z" fill="#C2E9FF"/>
<path d="M138.999 31.2627C130.745 24.3645 118.44 25.4375 111.514 33.6571C104.588 41.8788 105.666 54.1337 113.918 61.0319C121.497 67.3645 132.487 66.9758 139.595 60.5073L162.049 79.2739C162.489 79.6409 163.146 79.5848 163.514 79.1465L165.522 76.7651C165.89 76.3268 165.834 75.6726 165.394 75.3055L142.94 56.5389C148.1 48.4424 146.578 37.5952 138.999 31.2605V31.2627ZM138.414 56.1395C132.873 62.716 123.029 63.5732 116.424 58.0546C109.821 52.536 108.961 42.7317 114.502 36.153C120.042 29.5765 129.886 28.7193 136.491 34.2379C143.094 39.7565 143.955 49.5608 138.414 56.1395Z" fill="#3C4C75"/>
</g>
<defs>
<clipPath id="clip0_8_248">
<rect width="203" height="155" fill="white"/>
</clipPath>
</defs>
</svg>
