<svg width="32" height="32" viewBox="0 0 32 32" fill="none" xmlns="http://www.w3.org/2000/svg">
<path d="M27.9999 10.6667C25.9999 10.6667 24.9332 12.5333 25.4666 14L20.6666 18.8C20.2666 18.6667 19.7332 18.6667 19.3332 18.8L15.8666 15.3333C16.3999 13.8667 15.3332 12 13.3333 12C11.4666 12 10.2666 13.8667 10.7999 15.3333L4.66658 21.3333C3.19992 20.9333 1.33325 22 1.33325 24C1.33325 25.4667 2.53325 26.6667 3.99992 26.6667C5.86658 26.6667 7.06658 24.8 6.53325 23.3333L12.5332 17.2C12.9332 17.3333 13.4666 17.3333 13.8666 17.2L17.3332 20.6667C16.9332 22 17.9999 24 19.9999 24C21.9999 24 23.0666 22.1333 22.5332 20.6667L27.3332 15.8667C28.7999 16.2667 30.6666 15.2 30.6666 13.3333C30.6666 11.8667 29.4666 10.6667 27.9999 10.6667ZM19.9999 12L21.1999 9.2L23.9999 8L21.1999 6.8L19.9999 4L18.7999 6.8L15.9999 8L18.7999 9.2L19.9999 12ZM4.66658 14.6667L5.33325 12L7.99992 11.3333L5.33325 10.6667L4.66658 8L3.99992 10.6667L1.33325 11.3333L3.99992 12L4.66658 14.6667Z" fill="white"/>
</svg>
