<svg width="766" height="170" viewBox="0 0 766 170" fill="none" xmlns="http://www.w3.org/2000/svg">
<path d="M237.196 81.1791V60.5014H216.14V68.1598H228.773V77.3499C227.242 78.4987 225.711 79.2645 223.414 80.0304C221.5 80.7962 219.203 81.1791 216.906 81.1791C214.226 81.1791 211.929 80.7962 210.015 79.6475C208.101 78.8816 206.187 77.7329 204.655 76.2012C203.124 74.2866 201.975 72.7549 201.21 70.4574C200.444 68.1598 200.061 65.8623 200.061 63.1819C200.061 60.8843 200.444 58.5868 201.21 56.6722C202.358 54.3747 203.124 52.4601 204.655 50.9284C206.187 49.3967 207.718 48.248 210.015 47.0992C211.929 46.3334 213.843 45.9504 216.14 45.9504C217.671 45.9504 219.203 45.9504 220.351 46.3334C221.882 46.3334 223.031 46.7163 223.797 47.0992C224.945 47.8651 226.094 48.248 227.242 49.0138C228.008 49.3967 229.156 50.1626 229.922 50.9284L235.281 44.4188C234.133 43.27 232.984 42.5042 231.453 41.7383C230.305 40.9725 228.773 40.2066 227.242 39.4408C225.711 39.0579 224.179 38.675 222.265 38.292C220.734 37.9091 218.82 37.9091 216.523 37.9091C212.695 37.9091 209.249 38.675 206.187 39.8237C203.124 41.3554 200.444 42.8871 198.147 45.5675C195.85 47.8651 194.319 50.5455 192.788 53.6089C191.639 56.6722 190.873 60.1185 190.873 63.5648C190.873 67.0111 191.639 70.4574 192.788 73.5207C193.936 76.5841 195.85 79.2645 198.147 81.5621C200.444 83.8596 203.124 85.7742 206.187 86.9229C209.249 88.0717 212.695 88.8375 216.523 88.8375C218.82 88.8375 220.734 88.8375 223.031 88.4546C224.945 88.0717 226.476 87.3059 228.39 86.54C229.922 85.7742 231.836 85.0083 233.367 84.2425C234.516 83.0937 236.047 82.3279 237.196 81.1791ZM298.065 63.1819C298.065 59.7356 297.299 56.6722 296.151 53.2259C294.62 50.1626 293.088 47.4821 290.791 45.1846C288.494 42.8871 285.815 41.3554 282.752 39.8237C279.689 38.675 275.861 37.9091 272.416 37.9091C268.587 37.9091 264.759 38.675 261.696 39.8237C258.634 41.3554 255.954 42.8871 253.657 45.5675C251.36 47.8651 249.446 50.5455 248.298 53.6089C247.149 56.6722 246.383 60.1185 246.383 63.5648C246.383 67.0111 247.149 70.0744 248.298 73.1378C249.446 76.5841 251.36 79.2645 253.657 81.5621C255.954 83.8596 258.634 85.3913 261.696 86.9229C264.759 88.0717 268.205 88.8375 272.033 88.8375C275.861 88.8375 279.307 88.0717 282.369 86.9229C285.815 85.3913 288.494 83.4767 290.791 81.1791C293.088 78.8816 294.62 76.2012 296.151 73.1378C297.299 70.0744 298.065 66.6282 298.065 63.1819ZM288.877 63.5648C288.877 65.8623 288.494 68.1598 287.729 70.0744C286.963 72.372 285.815 74.2866 284.283 75.8182C282.752 77.3499 280.838 78.4987 278.924 79.6475C277.01 80.4133 274.713 80.7962 272.416 80.7962C269.736 80.7962 267.439 80.4133 265.525 79.6475C263.228 78.4987 261.696 77.3499 260.165 75.8182C258.634 74.2866 257.485 72.372 256.72 70.0744C255.954 67.7769 255.571 65.8623 255.571 63.1819C255.571 60.8843 255.954 58.5868 256.72 56.6722C257.485 54.3747 258.634 52.4601 260.165 50.9284C261.696 49.3967 263.228 48.248 265.525 47.0992C267.439 46.3334 269.736 45.9504 272.033 45.9504C274.713 45.9504 276.627 46.3334 278.924 47.0992C280.838 48.248 282.752 49.3967 284.283 50.9284C285.815 52.4601 286.963 54.3747 287.729 56.6722C288.494 58.5868 288.877 60.8843 288.877 63.5648ZM327.16 70.4574V62.416H306.104V70.4574H327.16ZM351.661 46.7163H367.357V38.675H327.543V46.7163H343.239V88.0717H351.661V46.7163ZM423.25 63.1819C423.25 59.7356 422.867 56.6722 421.335 53.2259C420.187 50.1626 418.656 47.4821 416.359 45.1846C414.062 42.8871 411.382 41.3554 407.936 39.8237C404.874 38.675 401.428 37.9091 397.6 37.9091C393.772 37.9091 390.326 38.675 387.264 39.8237C384.201 41.3554 381.521 42.8871 379.224 45.5675C376.927 47.8651 375.013 50.5455 373.865 53.6089C372.333 56.6722 371.951 60.1185 371.951 63.5648C371.951 67.0111 372.333 70.0744 373.865 73.1378C375.013 76.5841 376.545 79.2645 378.842 81.5621C381.139 83.8596 383.818 85.3913 387.264 86.9229C390.326 88.0717 393.772 88.8375 397.6 88.8375C401.428 88.8375 404.874 88.0717 407.936 86.9229C410.999 85.3913 413.679 83.4767 415.976 81.1791C418.273 78.8816 420.187 76.2012 421.335 73.1378C422.867 70.0744 423.25 66.6282 423.25 63.1819ZM414.444 63.5648C414.444 65.8623 414.062 68.1598 412.913 70.0744C412.148 72.372 410.999 74.2866 409.851 75.8182C408.319 77.3499 406.405 78.4987 404.491 79.6475C402.194 80.4133 400.28 80.7962 397.6 80.7962C395.303 80.7962 393.006 80.4133 390.709 79.6475C388.795 78.4987 386.881 77.3499 385.732 75.8182C384.201 74.2866 383.053 72.372 382.287 70.0744C381.139 67.7769 380.756 65.8623 380.756 63.1819C380.756 60.8843 381.139 58.5868 382.287 56.6722C383.053 54.3747 384.201 52.4601 385.35 50.9284C386.881 49.3967 388.795 48.248 390.709 47.0992C393.006 46.3334 394.92 45.9504 397.6 45.9504C399.897 45.9504 402.194 46.3334 404.491 47.0992C406.405 48.248 408.319 49.3967 409.468 50.9284C410.999 52.4601 412.148 54.3747 412.913 56.6722C414.062 58.5868 414.444 60.8843 414.444 63.5648ZM452.344 70.4574V62.416H431.672V70.4574H452.344ZM502.495 52.4601V88.0717H511.3V38.675H502.112L486.799 62.0331L471.869 38.675H462.681V88.0717H471.486V52.843L486.799 75.8182H487.182L502.495 52.4601ZM549.582 38.292H541.543L519.722 88.0717H528.527L533.504 76.2012H556.856L562.216 88.0717H571.404L549.582 38.292ZM553.794 68.5428H536.949L545.371 48.6309L553.794 68.5428ZM621.554 88.0717L608.155 69.3086C610.069 68.9257 611.6 68.1598 613.132 67.394C614.28 66.6282 615.812 65.4794 616.577 64.3306C617.726 62.799 618.491 61.6502 619.257 59.7356C619.64 58.2039 620.023 56.2893 620.023 54.3747C620.023 52.0772 619.64 49.7797 618.874 47.8651C618.109 45.9504 616.577 44.0358 615.046 42.8871C613.515 41.3554 611.6 40.5896 609.303 39.8237C607.007 39.0579 604.71 38.675 601.647 38.675H579.826V88.0717H588.248V70.8403H599.35L611.218 88.0717H621.554ZM611.218 54.7576C611.218 57.4381 610.452 59.3527 608.538 60.8843C606.624 62.416 604.327 63.1819 600.881 63.1819H588.248V46.3334H600.881C604.327 46.3334 606.624 47.0992 608.538 48.6309C610.452 50.1626 611.218 52.0772 611.218 54.7576ZM652.946 59.7356L673.618 38.675H662.899L639.164 63.5648V38.675H630.742V88.0717H639.164V73.9036L646.821 65.8623L664.048 88.0717H674.384L652.946 59.7356ZM718.409 38.675H682.041V88.0717H718.792V80.4133H690.463V67.0111H715.347V59.3527H690.463V46.3334H718.409V38.675ZM750.184 46.7163H765.497V38.675H725.683V46.7163H741.379V88.0717H750.184V46.7163Z" fill="url(#paint0_linear_5_6)"/>
<path fill-rule="evenodd" clip-rule="evenodd" d="M353.575 115.259C353.575 114.493 353.958 113.727 354.723 112.962C355.489 112.196 356.638 111.813 358.169 111.813C359.317 111.813 360.849 112.196 361.997 112.579C363.146 113.344 364.294 113.727 365.825 114.876L368.122 111.047C366.974 109.898 365.443 109.132 363.911 108.366C361.997 107.984 360.466 107.601 358.169 107.601C357.02 107.601 355.489 107.984 354.341 108.366C353.192 108.749 352.426 109.132 351.661 109.898C350.512 110.664 350.13 111.43 349.364 112.579C348.981 113.344 348.981 114.493 348.981 115.642C348.981 117.174 348.981 117.94 349.364 119.088C349.747 119.854 350.512 120.62 351.278 121.386C352.044 121.769 352.809 122.535 353.958 122.917C355.106 123.3 356.638 123.683 358.169 124.066C359.317 124.449 360.466 124.449 361.232 124.832C361.997 125.215 362.763 125.598 363.146 125.981C363.528 126.364 363.911 126.364 363.911 127.13C364.294 127.513 364.294 127.895 364.294 128.278C364.294 129.427 363.911 130.193 363.146 130.959C361.997 131.342 360.849 131.725 359.317 131.725C357.786 131.725 356.255 131.342 354.723 130.959C353.575 130.193 352.044 129.427 350.512 128.278L347.833 131.725C349.364 133.256 351.278 134.405 353.192 135.171C355.106 135.937 357.02 136.32 359.317 136.32C360.849 136.32 361.997 135.937 363.146 135.554C364.677 135.171 365.443 134.788 366.591 134.022C367.357 133.256 368.122 132.49 368.505 131.342C368.888 130.193 369.271 129.044 369.271 127.895C369.271 126.747 368.888 125.598 368.505 124.832C368.122 124.066 367.74 123.3 366.974 122.535C366.208 121.769 365.06 121.386 364.294 121.003C363.146 120.62 361.614 119.854 360.083 119.854C358.935 119.471 357.786 119.088 357.02 118.705C356.255 118.322 355.489 118.322 355.106 117.94C354.341 117.557 353.958 117.174 353.958 116.791C353.575 116.408 353.575 115.642 353.575 115.259ZM324.097 119.471V124.449H190.873V119.471H324.097ZM765.497 119.471V124.449H632.656V119.471H765.497ZM597.819 124.832L608.921 107.984H603.178L595.522 120.237L587.865 107.984H582.123L592.842 124.832V135.554H597.819V124.832ZM572.935 131.725V120.237H561.45V124.449H568.341V129.81C567.575 130.193 566.427 130.959 565.278 131.342C564.13 131.725 562.981 131.725 561.833 131.725C560.302 131.725 558.77 131.725 557.622 130.959C556.473 130.576 555.708 129.81 554.942 129.044C554.176 128.278 553.411 127.13 553.028 125.981C552.645 124.449 552.262 123.3 552.262 121.769C552.262 120.62 552.645 119.088 553.028 117.94C553.411 116.791 554.176 115.642 554.942 114.876C555.708 114.11 556.473 113.344 557.622 112.962C558.77 112.196 559.919 112.196 561.067 112.196C562.216 112.196 562.981 112.196 563.747 112.196C564.513 112.579 564.896 112.579 565.661 112.962C566.044 112.962 566.81 113.344 567.193 113.727C567.958 114.11 568.341 114.493 569.107 114.876L572.169 111.43C571.404 110.664 570.638 110.281 569.872 109.898C569.107 109.132 568.341 108.749 567.575 108.366C566.81 108.366 565.661 107.984 564.896 107.984C563.747 107.601 562.599 107.601 561.45 107.601C559.153 107.601 557.239 107.984 555.708 108.749C553.794 109.515 552.262 110.664 551.114 111.813C549.965 112.962 548.817 114.493 548.051 116.408C547.668 117.94 547.285 119.854 547.285 121.769C547.285 124.066 547.668 125.981 548.051 127.513C548.817 129.427 549.965 130.959 551.114 132.108C552.262 133.256 553.794 134.405 555.708 135.171C557.239 135.937 559.153 136.32 561.45 136.32C562.599 136.32 563.747 135.937 564.896 135.937C566.044 135.554 567.193 135.171 567.958 134.788C569.107 134.405 569.872 134.022 570.638 133.639C571.786 132.873 572.552 132.49 572.935 131.725ZM535.801 107.984H515.128V135.554H535.801V131.342H520.105V124.066H533.887V119.471H520.105V112.579H535.801V107.984ZM494.455 112.579H503.26V107.984H481.056V112.579H489.861V135.554H494.455V112.579ZM462.681 107.984H458.47L446.219 135.554H451.196L453.876 129.044H467.275L469.954 135.554H474.931L462.681 107.984ZM465.36 124.832H455.79L460.384 113.727L465.36 124.832ZM436.648 135.554L429.375 125.215C430.14 124.832 431.289 124.449 432.055 124.066C432.82 123.683 433.586 122.917 433.969 122.152C434.734 121.769 435.117 121.003 435.5 119.854C435.883 119.088 435.883 117.94 435.883 116.791C435.883 115.642 435.5 114.11 435.117 113.344C434.734 112.196 433.969 111.047 433.203 110.281C432.437 109.515 431.289 109.132 429.758 108.749C428.609 108.366 427.078 107.984 425.546 107.984H413.296V135.554H418.273V125.981H424.398L430.906 135.554H436.648ZM430.906 117.174C430.906 118.322 430.523 119.471 429.375 120.62C428.226 121.386 427.078 121.769 425.164 121.769H418.273V112.579H425.164C427.078 112.579 428.609 112.962 429.375 113.727C430.523 114.493 430.906 115.642 430.906 117.174ZM392.623 112.579H401.428V107.984H378.842V112.579H387.647V135.554H392.623V112.579Z" fill="#383838"/>
<path fill-rule="evenodd" clip-rule="evenodd" d="M148.38 40.2066C130.77 122.152 90.5727 158.912 27.7891 150.488C83.299 168.485 123.879 147.424 149.911 87.3059L166.372 99.1764L148.38 40.2066Z" fill="#085D99"/>
<path fill-rule="evenodd" clip-rule="evenodd" d="M27.7891 150.488C90.5727 158.912 130.77 122.152 148.38 40.2066L87.5101 80.7962L121.965 81.1791C110.863 123.683 71.8142 152.785 27.7891 150.488Z" fill="#018FD8"/>
<path fill-rule="evenodd" clip-rule="evenodd" d="M92.4868 123.683V84.2425H77.1738V134.788C79.8535 133.256 82.5333 131.725 85.2131 129.81C87.8929 127.895 90.1899 125.981 92.4868 123.683ZM56.8839 143.595V107.601H41.5708V146.659C46.9304 146.276 51.9072 145.127 56.8839 143.595ZM74.1111 136.703V96.1131H59.9465V142.829C64.9233 141.298 69.5172 139 74.1111 136.703Z" fill="url(#paint1_linear_5_6)"/>
<path fill-rule="evenodd" clip-rule="evenodd" d="M33.1486 62.416C35.8284 55.1406 39.6567 49.0138 44.2506 43.6529C49.2274 38.2921 54.9698 34.0799 61.095 31.0166C67.6031 27.9532 74.8768 26.4215 82.1505 26.4215C87.5101 26.4215 92.104 27.1874 96.3151 27.9532C100.526 28.719 104.737 29.8678 108.183 31.3995C111.628 32.9312 115.074 34.8458 118.519 36.7604L121.199 38.675L145.7 21.8265C141.872 18.3802 137.66 15.6997 133.449 13.0193C128.855 10.3389 124.262 8.04133 119.285 6.12673C114.308 4.21213 108.948 2.68044 102.823 1.53168C97.0808 0.765841 90.5727 0 83.299 0C71.0485 0 59.5637 2.29752 49.2274 6.89257C38.8911 11.4876 30.086 17.6143 22.4295 25.2728C15.1558 32.9312 9.41337 42.1213 5.20227 52.4601C3.67096 55.5235 2.52248 58.9698 1.75682 62.416C-5.89972 93.0497 12.476 129.044 37.3597 146.276C25.4921 121.386 23.1951 87.6888 33.1486 62.416ZM72.5798 169.251C88.2758 170.783 104.354 168.868 119.668 163.507C120.816 163.124 121.965 162.741 122.73 162.358C128.473 159.678 133.832 156.997 138.809 153.934C143.786 150.871 147.997 147.424 152.208 143.978V96.496C142.254 117.94 129.621 134.788 114.308 146.276C105.886 152.785 97.0808 157.38 87.5101 160.061C67.6031 165.805 45.7819 163.89 27.0234 153.934C40.8052 162.358 56.5011 167.336 72.5798 169.251Z" fill="#383838"/>
<defs>
<linearGradient id="paint0_linear_5_6" x1="196.445" y1="67.7731" x2="760.241" y2="58.953" gradientUnits="userSpaceOnUse">
<stop stop-color="#085D99"/>
<stop offset="1" stop-color="#018FD8"/>
</linearGradient>
<linearGradient id="paint1_linear_5_6" x1="38.6514" y1="142.27" x2="95.5625" y2="88.6676" gradientUnits="userSpaceOnUse">
<stop stop-color="#085D99"/>
<stop offset="0.690196" stop-color="#0576B8"/>
<stop offset="1" stop-color="#018FD8"/>
</linearGradient>
</defs>
</svg>
